<?xml version="1.0" encoding="utf-8"?>
<!-- Generator: Adobe Illustrator 16.0.0, SVG Export Plug-In . SVG Version: 6.00 Build 0)  -->
<!DOCTYPE svg PUBLIC "-//W3C//DTD SVG 1.1//EN" "http://www.w3.org/Graphics/SVG/1.1/DTD/svg11.dtd">
<svg version="1.1" id="Layer_1" xmlns="http://www.w3.org/2000/svg" xmlns:xlink="http://www.w3.org/1999/xlink" x="0px" y="0px"
	 width="2440.075px" height="860.363px" viewBox="0 0 2440.075 860.363" enable-background="new 0 0 2440.075 860.363"
	 xml:space="preserve">
<path fill="#939598" d="M379.39,45.51l-1.21-0.052l-1.211,0.052C218.747,52.047,54.965,96.39,48.071,98.276l-23.858,6.52
	l2.418,24.615c20.22,205.851,79.972,380.154,177.603,518.064c74.635,105.424,145.329,151.361,158.742,159.498l15.204,9.227
	l15.202-9.227c13.414-8.137,84.108-54.074,158.743-159.498c97.627-137.91,157.383-312.213,177.603-518.064l2.418-24.615
	l-23.858-6.52C701.394,96.39,537.612,52.047,379.39,45.51"/>
<path fill="#BDBEC0" d="M708.288,98.276C701.393,96.39,537.611,52.047,379.39,45.51l-1.211-0.052V816.2l15.203-9.227
	c13.414-8.137,84.108-54.074,158.742-159.498c97.628-137.91,157.383-312.213,177.603-518.064l2.418-24.615L708.288,98.276z"/>
<path fill="#F2F3F2" d="M379.39,45.51l-1.21-0.052l-1.211,0.052C218.747,52.047,54.965,96.39,48.071,98.276l-23.858,6.52
	l31.585,21.748l322.382,43.181l322.381-43.181l31.585-21.748l-23.858-6.52C701.394,96.39,537.612,52.047,379.39,45.51"/>
<path fill="#FFFFFF" d="M378.178,74.788c-156.725,6.479-322.382,51.756-322.382,51.756
	c47.22,480.738,304.938,644.792,322.382,655.376c17.444-10.584,275.162-174.638,322.381-655.376
	C700.559,126.543,534.903,81.267,378.178,74.788"/>
<g>
	<g>
		<defs>
			<rect id="SVGID_1_" x="55.797" y="74.783" width="644.763" height="707.136"/>
		</defs>
		<clipPath id="SVGID_2_">
			<use xlink:href="#SVGID_1_"  overflow="visible"/>
		</clipPath>
		<g clip-path="url(#SVGID_2_)">
			<defs>
				<path id="SVGID_3_" d="M378.179,74.787c-156.725,6.48-322.382,51.756-322.382,51.756
					c47.22,480.739,304.938,644.792,322.382,655.376c17.443-10.584,275.161-174.638,322.381-655.376
					C700.561,126.543,534.903,81.267,378.179,74.787"/>
			</defs>
			<clipPath id="SVGID_4_">
				<use xlink:href="#SVGID_3_"  overflow="visible"/>
			</clipPath>
			
				<linearGradient id="SVGID_5_" gradientUnits="userSpaceOnUse" x1="-184.6636" y1="1306.1899" x2="-183.6636" y2="1306.1899" gradientTransform="matrix(0 720.9702 720.9702 0 -941345.6875 133330.1563)">
				<stop  offset="0" style="stop-color:#FFFFFF"/>
				<stop  offset="0.9986" style="stop-color:#55A4DB"/>
				<stop  offset="1" style="stop-color:#55A4DB"/>
			</linearGradient>
			<rect x="55.797" y="74.787" clip-path="url(#SVGID_4_)" fill="url(#SVGID_5_)" width="644.763" height="707.132"/>
		</g>
	</g>
</g>
<g>
	<defs>
		<rect id="SVGID_6_" x="-170.323" y="-120.257" width="1091.81" height="980.62"/>
	</defs>
	<clipPath id="SVGID_7_">
		<use xlink:href="#SVGID_6_"  overflow="visible"/>
	</clipPath>
	<g clip-path="url(#SVGID_7_)">
		<defs>
			<path id="SVGID_8_" d="M378.179,74.787c-156.725,6.48-322.382,51.756-322.382,51.756
				c47.22,480.739,304.938,644.792,322.382,655.376c17.443-10.584,275.161-174.638,322.381-655.376
				C700.561,126.543,534.903,81.267,378.179,74.787"/>
		</defs>
		<clipPath id="SVGID_9_">
			<use xlink:href="#SVGID_8_"  overflow="visible"/>
		</clipPath>
		
			<linearGradient id="SVGID_10_" gradientUnits="userSpaceOnUse" x1="-184.7007" y1="1306.2231" x2="-183.7007" y2="1306.2231" gradientTransform="matrix(644.7633 0 0 -644.7633 119144.1328 842633)">
			<stop  offset="0" style="stop-color:#FFFFFF"/>
			<stop  offset="1" style="stop-color:#55A4DB"/>
		</linearGradient>
		<rect x="55.797" y="74.787" clip-path="url(#SVGID_9_)" fill="url(#SVGID_10_)" width="644.763" height="707.132"/>
	</g>
	<g clip-path="url(#SVGID_7_)">
		<defs>
			<path id="SVGID_11_" d="M378.179,74.787c-156.725,6.48-322.382,51.756-322.382,51.756
				c47.22,480.739,304.938,644.792,322.382,655.376c17.443-10.584,275.161-174.638,322.381-655.376
				C700.561,126.543,534.903,81.267,378.179,74.787"/>
		</defs>
		<clipPath id="SVGID_12_">
			<use xlink:href="#SVGID_11_"  overflow="visible"/>
		</clipPath>
		<g opacity="0.5" clip-path="url(#SVGID_12_)">
			<g>
				<defs>
					<rect id="SVGID_13_" x="-170.323" y="-120.257" width="1091.81" height="980.62"/>
				</defs>
				<clipPath id="SVGID_14_">
					<use xlink:href="#SVGID_13_"  overflow="visible"/>
				</clipPath>
				<g clip-path="url(#SVGID_14_)">
					<defs>
						<polygon id="SVGID_15_" points="-48.022,119.145 -96.691,45.77 -48.022,-27.609 0.647,45.77 						"/>
					</defs>
					<clipPath id="SVGID_16_">
						<use xlink:href="#SVGID_15_"  overflow="visible"/>
					</clipPath>
					
						<linearGradient id="SVGID_17_" gradientUnits="userSpaceOnUse" x1="-184.9106" y1="1306.2231" x2="-183.9106" y2="1306.2231" gradientTransform="matrix(97.3388 0 0 -97.3388 17902.2695 127192)">
						<stop  offset="0" style="stop-color:#FFFFFF"/>
						<stop  offset="1" style="stop-color:#55A4DB"/>
					</linearGradient>
					<rect x="-96.691" y="-27.609" clip-path="url(#SVGID_16_)" fill="url(#SVGID_17_)" width="97.339" height="146.754"/>
				</g>
				<g clip-path="url(#SVGID_14_)">
					<defs>
						<polygon id="SVGID_18_" points="94.044,119.145 45.375,45.77 94.044,-27.609 142.714,45.77 						"/>
					</defs>
					<clipPath id="SVGID_19_">
						<use xlink:href="#SVGID_18_"  overflow="visible"/>
					</clipPath>
					
						<linearGradient id="SVGID_20_" gradientUnits="userSpaceOnUse" x1="-184.9106" y1="1306.2231" x2="-183.9106" y2="1306.2231" gradientTransform="matrix(97.3388 0 0 -97.3388 18044.3301 127191.9922)">
						<stop  offset="0" style="stop-color:#FFFFFF"/>
						<stop  offset="1" style="stop-color:#55A4DB"/>
					</linearGradient>
					<rect x="45.375" y="-27.609" clip-path="url(#SVGID_19_)" fill="url(#SVGID_20_)" width="97.339" height="146.754"/>
				</g>
				<g clip-path="url(#SVGID_14_)">
					<defs>
						<polygon id="SVGID_21_" points="236.111,119.145 187.442,45.77 236.111,-27.609 284.781,45.77 						"/>
					</defs>
					<clipPath id="SVGID_22_">
						<use xlink:href="#SVGID_21_"  overflow="visible"/>
					</clipPath>
					
						<linearGradient id="SVGID_23_" gradientUnits="userSpaceOnUse" x1="-184.9106" y1="1306.2231" x2="-183.9106" y2="1306.2231" gradientTransform="matrix(97.3388 0 0 -97.3388 18186.3926 127191.9922)">
						<stop  offset="0" style="stop-color:#FFFFFF"/>
						<stop  offset="1" style="stop-color:#55A4DB"/>
					</linearGradient>
					<rect x="187.442" y="-27.609" clip-path="url(#SVGID_22_)" fill="url(#SVGID_23_)" width="97.339" height="146.754"/>
				</g>
				<g clip-path="url(#SVGID_14_)">
					<defs>
						<polygon id="SVGID_24_" points="378.179,119.145 329.509,45.77 378.179,-27.609 426.849,45.77 						"/>
					</defs>
					<clipPath id="SVGID_25_">
						<use xlink:href="#SVGID_24_"  overflow="visible"/>
					</clipPath>
					
						<linearGradient id="SVGID_26_" gradientUnits="userSpaceOnUse" x1="-184.9102" y1="1306.2241" x2="-183.9102" y2="1306.2241" gradientTransform="matrix(97.3385 0 0 -97.3385 18328.4023 127191.625)">
						<stop  offset="0" style="stop-color:#FFFFFF"/>
						<stop  offset="1" style="stop-color:#55A4DB"/>
					</linearGradient>
					<rect x="329.509" y="-27.609" clip-path="url(#SVGID_25_)" fill="url(#SVGID_26_)" width="97.339" height="146.754"/>
				</g>
				<g clip-path="url(#SVGID_14_)">
					<defs>
						<polygon id="SVGID_27_" points="520.247,119.145 471.577,45.77 520.247,-27.609 568.915,45.77 						"/>
					</defs>
					<clipPath id="SVGID_28_">
						<use xlink:href="#SVGID_27_"  overflow="visible"/>
					</clipPath>
					
						<linearGradient id="SVGID_29_" gradientUnits="userSpaceOnUse" x1="-184.9102" y1="1306.2241" x2="-183.9102" y2="1306.2241" gradientTransform="matrix(97.3373 0 0 -97.3373 18470.248 127190.0859)">
						<stop  offset="0" style="stop-color:#FFFFFF"/>
						<stop  offset="1" style="stop-color:#55A4DB"/>
					</linearGradient>
					<rect x="471.577" y="-27.609" clip-path="url(#SVGID_28_)" fill="url(#SVGID_29_)" width="97.338" height="146.754"/>
				</g>
				<g clip-path="url(#SVGID_14_)">
					<defs>
						<polygon id="SVGID_30_" points="662.313,119.145 613.645,45.77 662.313,-27.609 710.981,45.77 						"/>
					</defs>
					<clipPath id="SVGID_31_">
						<use xlink:href="#SVGID_30_"  overflow="visible"/>
					</clipPath>
					
						<linearGradient id="SVGID_32_" gradientUnits="userSpaceOnUse" x1="-184.9102" y1="1306.2241" x2="-183.9102" y2="1306.2241" gradientTransform="matrix(97.3373 0 0 -97.3373 18612.3105 127190.0859)">
						<stop  offset="0" style="stop-color:#FFFFFF"/>
						<stop  offset="1" style="stop-color:#55A4DB"/>
					</linearGradient>
					<rect x="613.645" y="-27.609" clip-path="url(#SVGID_31_)" fill="url(#SVGID_32_)" width="97.337" height="146.754"/>
				</g>
				<g clip-path="url(#SVGID_14_)">
					<defs>
						<polygon id="SVGID_33_" points="804.38,119.145 755.711,45.77 804.38,-27.609 853.048,45.77 						"/>
					</defs>
					<clipPath id="SVGID_34_">
						<use xlink:href="#SVGID_33_"  overflow="visible"/>
					</clipPath>
					
						<linearGradient id="SVGID_35_" gradientUnits="userSpaceOnUse" x1="-184.9102" y1="1306.2241" x2="-183.9102" y2="1306.2241" gradientTransform="matrix(97.3373 0 0 -97.3373 18754.373 127190.0859)">
						<stop  offset="0" style="stop-color:#FFFFFF"/>
						<stop  offset="1" style="stop-color:#55A4DB"/>
					</linearGradient>
					<rect x="755.711" y="-27.609" clip-path="url(#SVGID_34_)" fill="url(#SVGID_35_)" width="97.337" height="146.754"/>
				</g>
				<g clip-path="url(#SVGID_14_)">
					<defs>
						<polygon id="SVGID_36_" points="-48.022,304.45 -96.691,231.072 -48.022,157.696 0.647,231.072 						"/>
					</defs>
					<clipPath id="SVGID_37_">
						<use xlink:href="#SVGID_36_"  overflow="visible"/>
					</clipPath>
					
						<linearGradient id="SVGID_38_" gradientUnits="userSpaceOnUse" x1="-184.9106" y1="1306.2231" x2="-183.9106" y2="1306.2231" gradientTransform="matrix(97.3388 0 0 -97.3388 17902.2695 127377.3125)">
						<stop  offset="0" style="stop-color:#FFFFFF"/>
						<stop  offset="1" style="stop-color:#55A4DB"/>
					</linearGradient>
					<rect x="-96.691" y="157.696" clip-path="url(#SVGID_37_)" fill="url(#SVGID_38_)" width="97.339" height="146.754"/>
				</g>
				<g clip-path="url(#SVGID_14_)">
					<defs>
						<polygon id="SVGID_39_" points="94.044,304.45 45.375,231.072 94.044,157.696 142.714,231.072 						"/>
					</defs>
					<clipPath id="SVGID_40_">
						<use xlink:href="#SVGID_39_"  overflow="visible"/>
					</clipPath>
					
						<linearGradient id="SVGID_41_" gradientUnits="userSpaceOnUse" x1="-184.9106" y1="1306.2231" x2="-183.9106" y2="1306.2231" gradientTransform="matrix(97.3388 0 0 -97.3388 18044.3301 127377.3047)">
						<stop  offset="0" style="stop-color:#FFFFFF"/>
						<stop  offset="1" style="stop-color:#55A4DB"/>
					</linearGradient>
					<rect x="45.375" y="157.696" clip-path="url(#SVGID_40_)" fill="url(#SVGID_41_)" width="97.339" height="146.754"/>
				</g>
				<g clip-path="url(#SVGID_14_)">
					<defs>
						<polygon id="SVGID_42_" points="236.111,304.45 187.442,231.072 236.111,157.696 284.781,231.072 						"/>
					</defs>
					<clipPath id="SVGID_43_">
						<use xlink:href="#SVGID_42_"  overflow="visible"/>
					</clipPath>
					
						<linearGradient id="SVGID_44_" gradientUnits="userSpaceOnUse" x1="-184.9106" y1="1306.2231" x2="-183.9106" y2="1306.2231" gradientTransform="matrix(97.3388 0 0 -97.3388 18186.3926 127377.3047)">
						<stop  offset="0" style="stop-color:#FFFFFF"/>
						<stop  offset="1" style="stop-color:#55A4DB"/>
					</linearGradient>
					<rect x="187.442" y="157.696" clip-path="url(#SVGID_43_)" fill="url(#SVGID_44_)" width="97.339" height="146.754"/>
				</g>
				<g clip-path="url(#SVGID_14_)">
					<defs>
						<polygon id="SVGID_45_" points="378.179,304.45 329.509,231.072 378.179,157.696 426.849,231.072 						"/>
					</defs>
					<clipPath id="SVGID_46_">
						<use xlink:href="#SVGID_45_"  overflow="visible"/>
					</clipPath>
					
						<linearGradient id="SVGID_47_" gradientUnits="userSpaceOnUse" x1="-184.9102" y1="1306.2231" x2="-183.9102" y2="1306.2231" gradientTransform="matrix(97.3385 0 0 -97.3385 18328.4023 127376.9375)">
						<stop  offset="0" style="stop-color:#FFFFFF"/>
						<stop  offset="1" style="stop-color:#55A4DB"/>
					</linearGradient>
					<rect x="329.509" y="157.696" clip-path="url(#SVGID_46_)" fill="url(#SVGID_47_)" width="97.339" height="146.754"/>
				</g>
				<g clip-path="url(#SVGID_14_)">
					<defs>
						<polygon id="SVGID_48_" points="520.247,304.45 471.577,231.072 520.247,157.696 568.915,231.072 						"/>
					</defs>
					<clipPath id="SVGID_49_">
						<use xlink:href="#SVGID_48_"  overflow="visible"/>
					</clipPath>
					
						<linearGradient id="SVGID_50_" gradientUnits="userSpaceOnUse" x1="-184.9102" y1="1306.2231" x2="-183.9102" y2="1306.2231" gradientTransform="matrix(97.3373 0 0 -97.3373 18470.248 127375.3984)">
						<stop  offset="0" style="stop-color:#FFFFFF"/>
						<stop  offset="1" style="stop-color:#55A4DB"/>
					</linearGradient>
					<rect x="471.577" y="157.696" clip-path="url(#SVGID_49_)" fill="url(#SVGID_50_)" width="97.338" height="146.754"/>
				</g>
				<g clip-path="url(#SVGID_14_)">
					<defs>
						<polygon id="SVGID_51_" points="662.313,304.45 613.645,231.072 662.313,157.696 710.981,231.072 						"/>
					</defs>
					<clipPath id="SVGID_52_">
						<use xlink:href="#SVGID_51_"  overflow="visible"/>
					</clipPath>
					
						<linearGradient id="SVGID_53_" gradientUnits="userSpaceOnUse" x1="-184.9102" y1="1306.2231" x2="-183.9102" y2="1306.2231" gradientTransform="matrix(97.3373 0 0 -97.3373 18612.3105 127375.3984)">
						<stop  offset="0" style="stop-color:#FFFFFF"/>
						<stop  offset="1" style="stop-color:#55A4DB"/>
					</linearGradient>
					<rect x="613.645" y="157.696" clip-path="url(#SVGID_52_)" fill="url(#SVGID_53_)" width="97.337" height="146.754"/>
				</g>
				<g clip-path="url(#SVGID_14_)">
					<defs>
						<polygon id="SVGID_54_" points="804.38,304.45 755.711,231.072 804.38,157.696 853.048,231.072 						"/>
					</defs>
					<clipPath id="SVGID_55_">
						<use xlink:href="#SVGID_54_"  overflow="visible"/>
					</clipPath>
					
						<linearGradient id="SVGID_56_" gradientUnits="userSpaceOnUse" x1="-184.9102" y1="1306.2231" x2="-183.9102" y2="1306.2231" gradientTransform="matrix(97.3373 0 0 -97.3373 18754.373 127375.3984)">
						<stop  offset="0" style="stop-color:#FFFFFF"/>
						<stop  offset="1" style="stop-color:#55A4DB"/>
					</linearGradient>
					<rect x="755.711" y="157.696" clip-path="url(#SVGID_55_)" fill="url(#SVGID_56_)" width="97.337" height="146.754"/>
				</g>
				<g clip-path="url(#SVGID_14_)">
					<defs>
						<polygon id="SVGID_57_" points="-48.022,489.754 -96.691,416.379 -48.022,343.001 0.647,416.379 						"/>
					</defs>
					<clipPath id="SVGID_58_">
						<use xlink:href="#SVGID_57_"  overflow="visible"/>
					</clipPath>
					
						<linearGradient id="SVGID_59_" gradientUnits="userSpaceOnUse" x1="-184.9106" y1="1306.2222" x2="-183.9106" y2="1306.2222" gradientTransform="matrix(97.3388 0 0 -97.3388 17902.2695 127562.5625)">
						<stop  offset="0" style="stop-color:#FFFFFF"/>
						<stop  offset="1" style="stop-color:#55A4DB"/>
					</linearGradient>
					<rect x="-96.691" y="343.001" clip-path="url(#SVGID_58_)" fill="url(#SVGID_59_)" width="97.339" height="146.753"/>
				</g>
				<g clip-path="url(#SVGID_14_)">
					<defs>
						<polygon id="SVGID_60_" points="94.044,489.754 45.375,416.379 94.044,343.001 142.714,416.379 						"/>
					</defs>
					<clipPath id="SVGID_61_">
						<use xlink:href="#SVGID_60_"  overflow="visible"/>
					</clipPath>
					
						<linearGradient id="SVGID_62_" gradientUnits="userSpaceOnUse" x1="-184.9106" y1="1306.2231" x2="-183.9106" y2="1306.2231" gradientTransform="matrix(97.3388 0 0 -97.3388 18044.3301 127562.5547)">
						<stop  offset="0" style="stop-color:#FFFFFF"/>
						<stop  offset="1" style="stop-color:#55A4DB"/>
					</linearGradient>
					<rect x="45.375" y="343.001" clip-path="url(#SVGID_61_)" fill="url(#SVGID_62_)" width="97.339" height="146.753"/>
				</g>
				<g clip-path="url(#SVGID_14_)">
					<defs>
						<polygon id="SVGID_63_" points="236.111,489.754 187.442,416.379 236.111,343.001 284.781,416.379 						"/>
					</defs>
					<clipPath id="SVGID_64_">
						<use xlink:href="#SVGID_63_"  overflow="visible"/>
					</clipPath>
					
						<linearGradient id="SVGID_65_" gradientUnits="userSpaceOnUse" x1="-184.9106" y1="1306.2231" x2="-183.9106" y2="1306.2231" gradientTransform="matrix(97.3388 0 0 -97.3388 18186.3926 127562.5547)">
						<stop  offset="0" style="stop-color:#FFFFFF"/>
						<stop  offset="1" style="stop-color:#55A4DB"/>
					</linearGradient>
					<rect x="187.442" y="343.001" clip-path="url(#SVGID_64_)" fill="url(#SVGID_65_)" width="97.339" height="146.753"/>
				</g>
				<g clip-path="url(#SVGID_14_)">
					<defs>
						<polygon id="SVGID_66_" points="378.179,489.754 329.509,416.379 378.179,343.001 426.849,416.379 						"/>
					</defs>
					<clipPath id="SVGID_67_">
						<use xlink:href="#SVGID_66_"  overflow="visible"/>
					</clipPath>
					
						<linearGradient id="SVGID_68_" gradientUnits="userSpaceOnUse" x1="-184.9102" y1="1306.2231" x2="-183.9102" y2="1306.2231" gradientTransform="matrix(97.3385 0 0 -97.3385 18328.4023 127562.1875)">
						<stop  offset="0" style="stop-color:#FFFFFF"/>
						<stop  offset="1" style="stop-color:#55A4DB"/>
					</linearGradient>
					<rect x="329.509" y="343.001" clip-path="url(#SVGID_67_)" fill="url(#SVGID_68_)" width="97.339" height="146.753"/>
				</g>
				<g clip-path="url(#SVGID_14_)">
					<defs>
						<polygon id="SVGID_69_" points="520.247,489.754 471.577,416.379 520.247,343.001 568.915,416.379 						"/>
					</defs>
					<clipPath id="SVGID_70_">
						<use xlink:href="#SVGID_69_"  overflow="visible"/>
					</clipPath>
					
						<linearGradient id="SVGID_71_" gradientUnits="userSpaceOnUse" x1="-184.9102" y1="1306.2231" x2="-183.9102" y2="1306.2231" gradientTransform="matrix(97.3373 0 0 -97.3373 18470.248 127560.6484)">
						<stop  offset="0" style="stop-color:#FFFFFF"/>
						<stop  offset="1" style="stop-color:#55A4DB"/>
					</linearGradient>
					<rect x="471.577" y="343.001" clip-path="url(#SVGID_70_)" fill="url(#SVGID_71_)" width="97.338" height="146.753"/>
				</g>
				<g clip-path="url(#SVGID_14_)">
					<defs>
						<polygon id="SVGID_72_" points="662.313,489.754 613.645,416.379 662.313,343.001 710.981,416.379 						"/>
					</defs>
					<clipPath id="SVGID_73_">
						<use xlink:href="#SVGID_72_"  overflow="visible"/>
					</clipPath>
					
						<linearGradient id="SVGID_74_" gradientUnits="userSpaceOnUse" x1="-184.9102" y1="1306.2231" x2="-183.9102" y2="1306.2231" gradientTransform="matrix(97.3373 0 0 -97.3373 18612.3105 127560.6484)">
						<stop  offset="0" style="stop-color:#FFFFFF"/>
						<stop  offset="1" style="stop-color:#55A4DB"/>
					</linearGradient>
					<rect x="613.645" y="343.001" clip-path="url(#SVGID_73_)" fill="url(#SVGID_74_)" width="97.337" height="146.753"/>
				</g>
				<g clip-path="url(#SVGID_14_)">
					<defs>
						<polygon id="SVGID_75_" points="804.38,489.754 755.711,416.379 804.38,343.001 853.048,416.379 						"/>
					</defs>
					<clipPath id="SVGID_76_">
						<use xlink:href="#SVGID_75_"  overflow="visible"/>
					</clipPath>
					
						<linearGradient id="SVGID_77_" gradientUnits="userSpaceOnUse" x1="-184.9102" y1="1306.2231" x2="-183.9102" y2="1306.2231" gradientTransform="matrix(97.3373 0 0 -97.3373 18754.373 127560.6484)">
						<stop  offset="0" style="stop-color:#FFFFFF"/>
						<stop  offset="1" style="stop-color:#55A4DB"/>
					</linearGradient>
					<rect x="755.711" y="343.001" clip-path="url(#SVGID_76_)" fill="url(#SVGID_77_)" width="97.337" height="146.753"/>
				</g>
				<g clip-path="url(#SVGID_14_)">
					<defs>
						<polygon id="SVGID_78_" points="-48.022,675.059 -96.691,601.68 -48.022,528.305 0.647,601.68 						"/>
					</defs>
					<clipPath id="SVGID_79_">
						<use xlink:href="#SVGID_78_"  overflow="visible"/>
					</clipPath>
					
						<linearGradient id="SVGID_80_" gradientUnits="userSpaceOnUse" x1="-184.9106" y1="1306.2231" x2="-183.9106" y2="1306.2231" gradientTransform="matrix(97.3388 0 0 -97.3388 17902.2695 127747.875)">
						<stop  offset="0" style="stop-color:#FFFFFF"/>
						<stop  offset="1" style="stop-color:#55A4DB"/>
					</linearGradient>
					<rect x="-96.691" y="528.305" clip-path="url(#SVGID_79_)" fill="url(#SVGID_80_)" width="97.339" height="146.754"/>
				</g>
				<g clip-path="url(#SVGID_14_)">
					<defs>
						<polygon id="SVGID_81_" points="94.044,675.059 45.375,601.68 94.044,528.305 142.714,601.68 						"/>
					</defs>
					<clipPath id="SVGID_82_">
						<use xlink:href="#SVGID_81_"  overflow="visible"/>
					</clipPath>
					
						<linearGradient id="SVGID_83_" gradientUnits="userSpaceOnUse" x1="-184.9106" y1="1306.2231" x2="-183.9106" y2="1306.2231" gradientTransform="matrix(97.3388 0 0 -97.3388 18044.3301 127747.8672)">
						<stop  offset="0" style="stop-color:#FFFFFF"/>
						<stop  offset="1" style="stop-color:#55A4DB"/>
					</linearGradient>
					<rect x="45.375" y="528.305" clip-path="url(#SVGID_82_)" fill="url(#SVGID_83_)" width="97.339" height="146.754"/>
				</g>
				<g clip-path="url(#SVGID_14_)">
					<defs>
						<polygon id="SVGID_84_" points="236.111,675.059 187.442,601.68 236.111,528.305 284.781,601.68 						"/>
					</defs>
					<clipPath id="SVGID_85_">
						<use xlink:href="#SVGID_84_"  overflow="visible"/>
					</clipPath>
					
						<linearGradient id="SVGID_86_" gradientUnits="userSpaceOnUse" x1="-184.9106" y1="1306.2231" x2="-183.9106" y2="1306.2231" gradientTransform="matrix(97.3388 0 0 -97.3388 18186.3926 127747.8672)">
						<stop  offset="0" style="stop-color:#FFFFFF"/>
						<stop  offset="1" style="stop-color:#55A4DB"/>
					</linearGradient>
					<rect x="187.442" y="528.305" clip-path="url(#SVGID_85_)" fill="url(#SVGID_86_)" width="97.339" height="146.754"/>
				</g>
				<g clip-path="url(#SVGID_14_)">
					<defs>
						<polygon id="SVGID_87_" points="378.179,675.059 329.509,601.68 378.179,528.305 426.849,601.68 						"/>
					</defs>
					<clipPath id="SVGID_88_">
						<use xlink:href="#SVGID_87_"  overflow="visible"/>
					</clipPath>
					
						<linearGradient id="SVGID_89_" gradientUnits="userSpaceOnUse" x1="-184.9102" y1="1306.2222" x2="-183.9102" y2="1306.2222" gradientTransform="matrix(97.3385 0 0 -97.3385 18328.4023 127747.5)">
						<stop  offset="0" style="stop-color:#FFFFFF"/>
						<stop  offset="1" style="stop-color:#55A4DB"/>
					</linearGradient>
					<rect x="329.509" y="528.305" clip-path="url(#SVGID_88_)" fill="url(#SVGID_89_)" width="97.339" height="146.754"/>
				</g>
				<g clip-path="url(#SVGID_14_)">
					<defs>
						<polygon id="SVGID_90_" points="520.247,675.059 471.577,601.68 520.247,528.305 568.915,601.68 						"/>
					</defs>
					<clipPath id="SVGID_91_">
						<use xlink:href="#SVGID_90_"  overflow="visible"/>
					</clipPath>
					
						<linearGradient id="SVGID_92_" gradientUnits="userSpaceOnUse" x1="-184.9102" y1="1306.2231" x2="-183.9102" y2="1306.2231" gradientTransform="matrix(97.3373 0 0 -97.3373 18470.248 127745.9609)">
						<stop  offset="0" style="stop-color:#FFFFFF"/>
						<stop  offset="1" style="stop-color:#55A4DB"/>
					</linearGradient>
					<rect x="471.577" y="528.305" clip-path="url(#SVGID_91_)" fill="url(#SVGID_92_)" width="97.338" height="146.754"/>
				</g>
				<g clip-path="url(#SVGID_14_)">
					<defs>
						<polygon id="SVGID_93_" points="662.313,675.059 613.645,601.68 662.313,528.305 710.981,601.68 						"/>
					</defs>
					<clipPath id="SVGID_94_">
						<use xlink:href="#SVGID_93_"  overflow="visible"/>
					</clipPath>
					
						<linearGradient id="SVGID_95_" gradientUnits="userSpaceOnUse" x1="-184.9102" y1="1306.2231" x2="-183.9102" y2="1306.2231" gradientTransform="matrix(97.3373 0 0 -97.3373 18612.3105 127745.9609)">
						<stop  offset="0" style="stop-color:#FFFFFF"/>
						<stop  offset="1" style="stop-color:#55A4DB"/>
					</linearGradient>
					<rect x="613.645" y="528.305" clip-path="url(#SVGID_94_)" fill="url(#SVGID_95_)" width="97.337" height="146.754"/>
				</g>
				<g clip-path="url(#SVGID_14_)">
					<defs>
						<polygon id="SVGID_96_" points="804.38,675.059 755.711,601.68 804.38,528.305 853.048,601.68 						"/>
					</defs>
					<clipPath id="SVGID_97_">
						<use xlink:href="#SVGID_96_"  overflow="visible"/>
					</clipPath>
					
						<linearGradient id="SVGID_98_" gradientUnits="userSpaceOnUse" x1="-184.9102" y1="1306.2231" x2="-183.9102" y2="1306.2231" gradientTransform="matrix(97.3373 0 0 -97.3373 18754.373 127745.9609)">
						<stop  offset="0" style="stop-color:#FFFFFF"/>
						<stop  offset="1" style="stop-color:#55A4DB"/>
					</linearGradient>
					<rect x="755.711" y="528.305" clip-path="url(#SVGID_97_)" fill="url(#SVGID_98_)" width="97.337" height="146.754"/>
				</g>
				<g clip-path="url(#SVGID_14_)">
					<defs>
						<polygon id="SVGID_99_" points="-48.022,860.363 -96.691,786.988 -48.022,713.613 0.647,786.988 						"/>
					</defs>
					<clipPath id="SVGID_100_">
						<use xlink:href="#SVGID_99_"  overflow="visible"/>
					</clipPath>
					
						<linearGradient id="SVGID_101_" gradientUnits="userSpaceOnUse" x1="-184.9106" y1="1306.2222" x2="-183.9106" y2="1306.2222" gradientTransform="matrix(97.3388 0 0 -97.3388 17902.2695 127933.1875)">
						<stop  offset="0" style="stop-color:#FFFFFF"/>
						<stop  offset="1" style="stop-color:#55A4DB"/>
					</linearGradient>
					<rect x="-96.691" y="713.613" clip-path="url(#SVGID_100_)" fill="url(#SVGID_101_)" width="97.339" height="146.75"/>
				</g>
				<g clip-path="url(#SVGID_14_)">
					<defs>
						<polygon id="SVGID_102_" points="94.044,860.363 45.375,786.988 94.044,713.613 142.714,786.988 						"/>
					</defs>
					<clipPath id="SVGID_103_">
						<use xlink:href="#SVGID_102_"  overflow="visible"/>
					</clipPath>
					
						<linearGradient id="SVGID_104_" gradientUnits="userSpaceOnUse" x1="-184.9106" y1="1306.2231" x2="-183.9106" y2="1306.2231" gradientTransform="matrix(97.3388 0 0 -97.3388 18044.3301 127933.1797)">
						<stop  offset="0" style="stop-color:#FFFFFF"/>
						<stop  offset="1" style="stop-color:#55A4DB"/>
					</linearGradient>
					<rect x="45.375" y="713.613" clip-path="url(#SVGID_103_)" fill="url(#SVGID_104_)" width="97.339" height="146.75"/>
				</g>
				<g clip-path="url(#SVGID_14_)">
					<defs>
						<polygon id="SVGID_105_" points="236.111,860.363 187.442,786.988 236.111,713.613 284.781,786.988 						"/>
					</defs>
					<clipPath id="SVGID_106_">
						<use xlink:href="#SVGID_105_"  overflow="visible"/>
					</clipPath>
					
						<linearGradient id="SVGID_107_" gradientUnits="userSpaceOnUse" x1="-184.9106" y1="1306.2231" x2="-183.9106" y2="1306.2231" gradientTransform="matrix(97.3388 0 0 -97.3388 18186.3926 127933.1797)">
						<stop  offset="0" style="stop-color:#FFFFFF"/>
						<stop  offset="1" style="stop-color:#55A4DB"/>
					</linearGradient>
					<rect x="187.442" y="713.613" clip-path="url(#SVGID_106_)" fill="url(#SVGID_107_)" width="97.339" height="146.75"/>
				</g>
				<g clip-path="url(#SVGID_14_)">
					<defs>
						<polygon id="SVGID_108_" points="378.179,860.363 329.509,786.988 378.179,713.613 426.849,786.988 						"/>
					</defs>
					<clipPath id="SVGID_109_">
						<use xlink:href="#SVGID_108_"  overflow="visible"/>
					</clipPath>
					
						<linearGradient id="SVGID_110_" gradientUnits="userSpaceOnUse" x1="-184.9102" y1="1306.2231" x2="-183.9102" y2="1306.2231" gradientTransform="matrix(97.3385 0 0 -97.3385 18328.4023 127932.8125)">
						<stop  offset="0" style="stop-color:#FFFFFF"/>
						<stop  offset="1" style="stop-color:#55A4DB"/>
					</linearGradient>
					<rect x="329.509" y="713.613" clip-path="url(#SVGID_109_)" fill="url(#SVGID_110_)" width="97.339" height="146.75"/>
				</g>
				<g clip-path="url(#SVGID_14_)">
					<defs>
						<polygon id="SVGID_111_" points="520.247,860.363 471.577,786.988 520.247,713.613 568.915,786.988 						"/>
					</defs>
					<clipPath id="SVGID_112_">
						<use xlink:href="#SVGID_111_"  overflow="visible"/>
					</clipPath>
					
						<linearGradient id="SVGID_113_" gradientUnits="userSpaceOnUse" x1="-184.9102" y1="1306.2231" x2="-183.9102" y2="1306.2231" gradientTransform="matrix(97.3373 0 0 -97.3373 18470.248 127931.2734)">
						<stop  offset="0" style="stop-color:#FFFFFF"/>
						<stop  offset="1" style="stop-color:#55A4DB"/>
					</linearGradient>
					<rect x="471.577" y="713.613" clip-path="url(#SVGID_112_)" fill="url(#SVGID_113_)" width="97.338" height="146.75"/>
				</g>
				<g clip-path="url(#SVGID_14_)">
					<defs>
						<polygon id="SVGID_114_" points="662.313,860.363 613.645,786.988 662.313,713.613 710.981,786.988 						"/>
					</defs>
					<clipPath id="SVGID_115_">
						<use xlink:href="#SVGID_114_"  overflow="visible"/>
					</clipPath>
					
						<linearGradient id="SVGID_116_" gradientUnits="userSpaceOnUse" x1="-184.9102" y1="1306.2231" x2="-183.9102" y2="1306.2231" gradientTransform="matrix(97.3373 0 0 -97.3373 18612.3105 127931.2734)">
						<stop  offset="0" style="stop-color:#FFFFFF"/>
						<stop  offset="1" style="stop-color:#55A4DB"/>
					</linearGradient>
					<rect x="613.645" y="713.613" clip-path="url(#SVGID_115_)" fill="url(#SVGID_116_)" width="97.337" height="146.75"/>
				</g>
				<g clip-path="url(#SVGID_14_)">
					<defs>
						<polygon id="SVGID_117_" points="804.38,860.363 755.711,786.988 804.38,713.613 853.048,786.988 						"/>
					</defs>
					<clipPath id="SVGID_118_">
						<use xlink:href="#SVGID_117_"  overflow="visible"/>
					</clipPath>
					
						<linearGradient id="SVGID_119_" gradientUnits="userSpaceOnUse" x1="-184.9102" y1="1306.2231" x2="-183.9102" y2="1306.2231" gradientTransform="matrix(97.3373 0 0 -97.3373 18754.373 127931.2734)">
						<stop  offset="0" style="stop-color:#FFFFFF"/>
						<stop  offset="1" style="stop-color:#55A4DB"/>
					</linearGradient>
					<rect x="755.711" y="713.613" clip-path="url(#SVGID_118_)" fill="url(#SVGID_119_)" width="97.337" height="146.75"/>
				</g>
				<g opacity="0.5" clip-path="url(#SVGID_14_)">
					<g>
						<defs>
							<rect id="SVGID_120_" x="-170.323" y="-120.257" width="1091.81" height="887.966"/>
						</defs>
						<clipPath id="SVGID_121_">
							<use xlink:href="#SVGID_120_"  overflow="visible"/>
						</clipPath>
						<g clip-path="url(#SVGID_121_)">
							<defs>
								<polygon id="SVGID_122_" points="-121.654,26.492 -170.324,-46.884 -121.654,-120.259 -72.984,-46.884 								"/>
							</defs>
							<clipPath id="SVGID_123_">
								<use xlink:href="#SVGID_122_"  overflow="visible"/>
							</clipPath>
							
								<linearGradient id="SVGID_124_" gradientUnits="userSpaceOnUse" x1="-184.9097" y1="1306.2231" x2="-183.9097" y2="1306.2231" gradientTransform="matrix(97.3388 0 0 -97.3388 17828.582 127099.3125)">
								<stop  offset="0" style="stop-color:#FFFFFF"/>
								<stop  offset="1" style="stop-color:#55A4DB"/>
							</linearGradient>
							<rect x="-170.324" y="-120.259" clip-path="url(#SVGID_123_)" fill="url(#SVGID_124_)" width="97.339" height="146.751"/>
						</g>
						<g clip-path="url(#SVGID_121_)">
							<defs>
								<polygon id="SVGID_125_" points="20.414,26.492 -28.255,-46.884 20.414,-120.259 69.082,-46.884 								"/>
							</defs>
							<clipPath id="SVGID_126_">
								<use xlink:href="#SVGID_125_"  overflow="visible"/>
							</clipPath>
							
								<linearGradient id="SVGID_127_" gradientUnits="userSpaceOnUse" x1="-184.9102" y1="1306.2231" x2="-183.9102" y2="1306.2231" gradientTransform="matrix(97.3373 0 0 -97.3373 17970.4355 127097.3984)">
								<stop  offset="0" style="stop-color:#FFFFFF"/>
								<stop  offset="1" style="stop-color:#55A4DB"/>
							</linearGradient>
							<rect x="-28.255" y="-120.259" clip-path="url(#SVGID_126_)" fill="url(#SVGID_127_)" width="97.337" height="146.751"/>
						</g>
						<g clip-path="url(#SVGID_121_)">
							<defs>
								<polygon id="SVGID_128_" points="162.48,26.492 113.812,-46.884 162.48,-120.259 211.148,-46.884 								"/>
							</defs>
							<clipPath id="SVGID_129_">
								<use xlink:href="#SVGID_128_"  overflow="visible"/>
							</clipPath>
							
								<linearGradient id="SVGID_130_" gradientUnits="userSpaceOnUse" x1="-184.9106" y1="1306.2231" x2="-183.9106" y2="1306.2231" gradientTransform="matrix(97.3373 0 0 -97.3373 18112.498 127097.3984)">
								<stop  offset="0" style="stop-color:#FFFFFF"/>
								<stop  offset="1" style="stop-color:#55A4DB"/>
							</linearGradient>
							<rect x="113.812" y="-120.259" clip-path="url(#SVGID_129_)" fill="url(#SVGID_130_)" width="97.337" height="146.751"/>
						</g>
						<g clip-path="url(#SVGID_121_)">
							<defs>
								<polygon id="SVGID_131_" points="304.546,26.492 255.878,-46.884 304.546,-120.259 353.215,-46.884 								"/>
							</defs>
							<clipPath id="SVGID_132_">
								<use xlink:href="#SVGID_131_"  overflow="visible"/>
							</clipPath>
							
								<linearGradient id="SVGID_133_" gradientUnits="userSpaceOnUse" x1="-184.9106" y1="1306.2222" x2="-183.9106" y2="1306.2222" gradientTransform="matrix(97.3371 0 0 -97.3371 18254.5059 127097.0078)">
								<stop  offset="0" style="stop-color:#FFFFFF"/>
								<stop  offset="1" style="stop-color:#55A4DB"/>
							</linearGradient>
							<rect x="255.878" y="-120.259" clip-path="url(#SVGID_132_)" fill="url(#SVGID_133_)" width="97.337" height="146.751"/>
						</g>
						<g clip-path="url(#SVGID_121_)">
							<defs>
								<polygon id="SVGID_134_" points="446.613,26.492 397.945,-46.884 446.613,-120.259 495.282,-46.884 								"/>
							</defs>
							<clipPath id="SVGID_135_">
								<use xlink:href="#SVGID_134_"  overflow="visible"/>
							</clipPath>
							
								<linearGradient id="SVGID_136_" gradientUnits="userSpaceOnUse" x1="-184.9106" y1="1306.2222" x2="-183.9106" y2="1306.2222" gradientTransform="matrix(97.3374 0 0 -97.3374 18396.627 127097.4219)">
								<stop  offset="0" style="stop-color:#FFFFFF"/>
								<stop  offset="1" style="stop-color:#55A4DB"/>
							</linearGradient>
							<rect x="397.945" y="-120.259" clip-path="url(#SVGID_135_)" fill="url(#SVGID_136_)" width="97.337" height="146.751"/>
						</g>
						<g clip-path="url(#SVGID_121_)">
							<defs>
								<polygon id="SVGID_137_" points="588.68,26.492 540.011,-46.884 588.68,-120.259 637.35,-46.884 								"/>
							</defs>
							<clipPath id="SVGID_138_">
								<use xlink:href="#SVGID_137_"  overflow="visible"/>
							</clipPath>
							
								<linearGradient id="SVGID_139_" gradientUnits="userSpaceOnUse" x1="-184.9102" y1="1306.2231" x2="-183.9102" y2="1306.2231" gradientTransform="matrix(97.3388 0 0 -97.3388 18538.957 127099.3125)">
								<stop  offset="0" style="stop-color:#FFFFFF"/>
								<stop  offset="1" style="stop-color:#55A4DB"/>
							</linearGradient>
							<rect x="540.011" y="-120.259" clip-path="url(#SVGID_138_)" fill="url(#SVGID_139_)" width="97.338" height="146.751"/>
						</g>
						<g clip-path="url(#SVGID_121_)">
							<defs>
								<polygon id="SVGID_140_" points="730.748,26.492 682.079,-46.884 730.748,-120.259 779.417,-46.884 								"/>
							</defs>
							<clipPath id="SVGID_141_">
								<use xlink:href="#SVGID_140_"  overflow="visible"/>
							</clipPath>
							
								<linearGradient id="SVGID_142_" gradientUnits="userSpaceOnUse" x1="-184.9102" y1="1306.2231" x2="-183.9102" y2="1306.2231" gradientTransform="matrix(97.3388 0 0 -97.3388 18681.0195 127099.3125)">
								<stop  offset="0" style="stop-color:#FFFFFF"/>
								<stop  offset="1" style="stop-color:#55A4DB"/>
							</linearGradient>
							<rect x="682.079" y="-120.259" clip-path="url(#SVGID_141_)" fill="url(#SVGID_142_)" width="97.339" height="146.751"/>
						</g>
						<g clip-path="url(#SVGID_121_)">
							<defs>
								<polygon id="SVGID_143_" points="872.814,26.492 824.146,-46.884 872.814,-120.259 921.483,-46.884 								"/>
							</defs>
							<clipPath id="SVGID_144_">
								<use xlink:href="#SVGID_143_"  overflow="visible"/>
							</clipPath>
							
								<linearGradient id="SVGID_145_" gradientUnits="userSpaceOnUse" x1="-184.9102" y1="1306.2222" x2="-183.9102" y2="1306.2222" gradientTransform="matrix(97.3385 0 0 -97.3385 18823.0273 127098.9375)">
								<stop  offset="0" style="stop-color:#FFFFFF"/>
								<stop  offset="1" style="stop-color:#55A4DB"/>
							</linearGradient>
							<rect x="824.146" y="-120.259" clip-path="url(#SVGID_144_)" fill="url(#SVGID_145_)" width="97.338" height="146.751"/>
						</g>
						<g clip-path="url(#SVGID_121_)">
							<defs>
								<polygon id="SVGID_146_" points="-121.654,211.799 -170.324,138.421 -121.654,65.042 -72.984,138.421 								"/>
							</defs>
							<clipPath id="SVGID_147_">
								<use xlink:href="#SVGID_146_"  overflow="visible"/>
							</clipPath>
							
								<linearGradient id="SVGID_148_" gradientUnits="userSpaceOnUse" x1="-184.9097" y1="1306.2231" x2="-183.9097" y2="1306.2231" gradientTransform="matrix(97.3388 0 0 -97.3388 17828.582 127284.625)">
								<stop  offset="0" style="stop-color:#FFFFFF"/>
								<stop  offset="1" style="stop-color:#55A4DB"/>
							</linearGradient>
							<rect x="-170.324" y="65.042" clip-path="url(#SVGID_147_)" fill="url(#SVGID_148_)" width="97.339" height="146.757"/>
						</g>
						<g clip-path="url(#SVGID_121_)">
							<defs>
								<polygon id="SVGID_149_" points="20.414,211.799 -28.255,138.421 20.414,65.042 69.082,138.421 								"/>
							</defs>
							<clipPath id="SVGID_150_">
								<use xlink:href="#SVGID_149_"  overflow="visible"/>
							</clipPath>
							
								<linearGradient id="SVGID_151_" gradientUnits="userSpaceOnUse" x1="-184.9102" y1="1306.2231" x2="-183.9102" y2="1306.2231" gradientTransform="matrix(97.3373 0 0 -97.3373 17970.4355 127282.7109)">
								<stop  offset="0" style="stop-color:#FFFFFF"/>
								<stop  offset="1" style="stop-color:#55A4DB"/>
							</linearGradient>
							<rect x="-28.255" y="65.042" clip-path="url(#SVGID_150_)" fill="url(#SVGID_151_)" width="97.337" height="146.757"/>
						</g>
						<g clip-path="url(#SVGID_121_)">
							<defs>
								<polygon id="SVGID_152_" points="162.48,211.799 113.812,138.421 162.48,65.042 211.148,138.421 								"/>
							</defs>
							<clipPath id="SVGID_153_">
								<use xlink:href="#SVGID_152_"  overflow="visible"/>
							</clipPath>
							
								<linearGradient id="SVGID_154_" gradientUnits="userSpaceOnUse" x1="-184.9106" y1="1306.2231" x2="-183.9106" y2="1306.2231" gradientTransform="matrix(97.3373 0 0 -97.3373 18112.498 127282.7109)">
								<stop  offset="0" style="stop-color:#FFFFFF"/>
								<stop  offset="1" style="stop-color:#55A4DB"/>
							</linearGradient>
							<rect x="113.812" y="65.042" clip-path="url(#SVGID_153_)" fill="url(#SVGID_154_)" width="97.337" height="146.757"/>
						</g>
						<g clip-path="url(#SVGID_121_)">
							<defs>
								<polygon id="SVGID_155_" points="304.546,211.799 255.878,138.421 304.546,65.042 353.215,138.421 								"/>
							</defs>
							<clipPath id="SVGID_156_">
								<use xlink:href="#SVGID_155_"  overflow="visible"/>
							</clipPath>
							
								<linearGradient id="SVGID_157_" gradientUnits="userSpaceOnUse" x1="-184.9106" y1="1306.2222" x2="-183.9106" y2="1306.2222" gradientTransform="matrix(97.3371 0 0 -97.3371 18254.5059 127282.3203)">
								<stop  offset="0" style="stop-color:#FFFFFF"/>
								<stop  offset="1" style="stop-color:#55A4DB"/>
							</linearGradient>
							<rect x="255.878" y="65.042" clip-path="url(#SVGID_156_)" fill="url(#SVGID_157_)" width="97.337" height="146.757"/>
						</g>
						<g clip-path="url(#SVGID_121_)">
							<defs>
								<polygon id="SVGID_158_" points="446.613,211.799 397.945,138.421 446.613,65.042 495.282,138.421 								"/>
							</defs>
							<clipPath id="SVGID_159_">
								<use xlink:href="#SVGID_158_"  overflow="visible"/>
							</clipPath>
							
								<linearGradient id="SVGID_160_" gradientUnits="userSpaceOnUse" x1="-184.9106" y1="1306.2231" x2="-183.9106" y2="1306.2231" gradientTransform="matrix(97.3374 0 0 -97.3374 18396.627 127282.7344)">
								<stop  offset="0" style="stop-color:#FFFFFF"/>
								<stop  offset="1" style="stop-color:#55A4DB"/>
							</linearGradient>
							<rect x="397.945" y="65.042" clip-path="url(#SVGID_159_)" fill="url(#SVGID_160_)" width="97.337" height="146.757"/>
						</g>
						<g clip-path="url(#SVGID_121_)">
							<defs>
								<polygon id="SVGID_161_" points="588.68,211.799 540.011,138.421 588.68,65.042 637.35,138.421 								"/>
							</defs>
							<clipPath id="SVGID_162_">
								<use xlink:href="#SVGID_161_"  overflow="visible"/>
							</clipPath>
							
								<linearGradient id="SVGID_163_" gradientUnits="userSpaceOnUse" x1="-184.9102" y1="1306.2231" x2="-183.9102" y2="1306.2231" gradientTransform="matrix(97.3388 0 0 -97.3388 18538.957 127284.625)">
								<stop  offset="0" style="stop-color:#FFFFFF"/>
								<stop  offset="1" style="stop-color:#55A4DB"/>
							</linearGradient>
							<rect x="540.011" y="65.042" clip-path="url(#SVGID_162_)" fill="url(#SVGID_163_)" width="97.338" height="146.757"/>
						</g>
						<g clip-path="url(#SVGID_121_)">
							<defs>
								<polygon id="SVGID_164_" points="730.748,211.799 682.079,138.421 730.748,65.042 779.417,138.421 								"/>
							</defs>
							<clipPath id="SVGID_165_">
								<use xlink:href="#SVGID_164_"  overflow="visible"/>
							</clipPath>
							
								<linearGradient id="SVGID_166_" gradientUnits="userSpaceOnUse" x1="-184.9102" y1="1306.2231" x2="-183.9102" y2="1306.2231" gradientTransform="matrix(97.3388 0 0 -97.3388 18681.0195 127284.625)">
								<stop  offset="0" style="stop-color:#FFFFFF"/>
								<stop  offset="1" style="stop-color:#55A4DB"/>
							</linearGradient>
							<rect x="682.079" y="65.042" clip-path="url(#SVGID_165_)" fill="url(#SVGID_166_)" width="97.339" height="146.757"/>
						</g>
						<g clip-path="url(#SVGID_121_)">
							<defs>
								<polygon id="SVGID_167_" points="872.814,211.799 824.146,138.421 872.814,65.042 921.483,138.421 								"/>
							</defs>
							<clipPath id="SVGID_168_">
								<use xlink:href="#SVGID_167_"  overflow="visible"/>
							</clipPath>
							
								<linearGradient id="SVGID_169_" gradientUnits="userSpaceOnUse" x1="-184.9102" y1="1306.2231" x2="-183.9102" y2="1306.2231" gradientTransform="matrix(97.3385 0 0 -97.3385 18823.0273 127284.25)">
								<stop  offset="0" style="stop-color:#FFFFFF"/>
								<stop  offset="1" style="stop-color:#55A4DB"/>
							</linearGradient>
							<rect x="824.146" y="65.042" clip-path="url(#SVGID_168_)" fill="url(#SVGID_169_)" width="97.338" height="146.757"/>
						</g>
						<g clip-path="url(#SVGID_121_)">
							<defs>
								<polygon id="SVGID_170_" points="-121.654,397.1 -170.324,323.725 -121.654,250.349 -72.984,323.725 								"/>
							</defs>
							<clipPath id="SVGID_171_">
								<use xlink:href="#SVGID_170_"  overflow="visible"/>
							</clipPath>
							
								<linearGradient id="SVGID_172_" gradientUnits="userSpaceOnUse" x1="-184.9097" y1="1306.2231" x2="-183.9097" y2="1306.2231" gradientTransform="matrix(97.3388 0 0 -97.3388 17828.582 127469.9375)">
								<stop  offset="0" style="stop-color:#FFFFFF"/>
								<stop  offset="1" style="stop-color:#55A4DB"/>
							</linearGradient>
							<rect x="-170.324" y="250.349" clip-path="url(#SVGID_171_)" fill="url(#SVGID_172_)" width="97.339" height="146.751"/>
						</g>
						<g clip-path="url(#SVGID_121_)">
							<defs>
								<polygon id="SVGID_173_" points="20.414,397.1 -28.255,323.725 20.414,250.349 69.082,323.725 								"/>
							</defs>
							<clipPath id="SVGID_174_">
								<use xlink:href="#SVGID_173_"  overflow="visible"/>
							</clipPath>
							
								<linearGradient id="SVGID_175_" gradientUnits="userSpaceOnUse" x1="-184.9102" y1="1306.2231" x2="-183.9102" y2="1306.2231" gradientTransform="matrix(97.3373 0 0 -97.3373 17970.4355 127468.0234)">
								<stop  offset="0" style="stop-color:#FFFFFF"/>
								<stop  offset="1" style="stop-color:#55A4DB"/>
							</linearGradient>
							<rect x="-28.255" y="250.349" clip-path="url(#SVGID_174_)" fill="url(#SVGID_175_)" width="97.337" height="146.751"/>
						</g>
						<g clip-path="url(#SVGID_121_)">
							<defs>
								<polygon id="SVGID_176_" points="162.48,397.1 113.812,323.725 162.48,250.349 211.148,323.725 								"/>
							</defs>
							<clipPath id="SVGID_177_">
								<use xlink:href="#SVGID_176_"  overflow="visible"/>
							</clipPath>
							
								<linearGradient id="SVGID_178_" gradientUnits="userSpaceOnUse" x1="-184.9106" y1="1306.2231" x2="-183.9106" y2="1306.2231" gradientTransform="matrix(97.3373 0 0 -97.3373 18112.498 127468.0234)">
								<stop  offset="0" style="stop-color:#FFFFFF"/>
								<stop  offset="1" style="stop-color:#55A4DB"/>
							</linearGradient>
							<rect x="113.812" y="250.349" clip-path="url(#SVGID_177_)" fill="url(#SVGID_178_)" width="97.337" height="146.751"/>
						</g>
						<g clip-path="url(#SVGID_121_)">
							<defs>
								<polygon id="SVGID_179_" points="304.546,397.1 255.878,323.725 304.546,250.349 353.215,323.725 								"/>
							</defs>
							<clipPath id="SVGID_180_">
								<use xlink:href="#SVGID_179_"  overflow="visible"/>
							</clipPath>
							
								<linearGradient id="SVGID_181_" gradientUnits="userSpaceOnUse" x1="-184.9106" y1="1306.2222" x2="-183.9106" y2="1306.2222" gradientTransform="matrix(97.3371 0 0 -97.3371 18254.5059 127467.6328)">
								<stop  offset="0" style="stop-color:#FFFFFF"/>
								<stop  offset="1" style="stop-color:#55A4DB"/>
							</linearGradient>
							<rect x="255.878" y="250.349" clip-path="url(#SVGID_180_)" fill="url(#SVGID_181_)" width="97.337" height="146.751"/>
						</g>
						<g clip-path="url(#SVGID_121_)">
							<defs>
								<polygon id="SVGID_182_" points="446.613,397.1 397.945,323.725 446.613,250.349 495.282,323.725 								"/>
							</defs>
							<clipPath id="SVGID_183_">
								<use xlink:href="#SVGID_182_"  overflow="visible"/>
							</clipPath>
							
								<linearGradient id="SVGID_184_" gradientUnits="userSpaceOnUse" x1="-184.9106" y1="1306.2231" x2="-183.9106" y2="1306.2231" gradientTransform="matrix(97.3374 0 0 -97.3374 18396.627 127468.0469)">
								<stop  offset="0" style="stop-color:#FFFFFF"/>
								<stop  offset="1" style="stop-color:#55A4DB"/>
							</linearGradient>
							<rect x="397.945" y="250.349" clip-path="url(#SVGID_183_)" fill="url(#SVGID_184_)" width="97.337" height="146.751"/>
						</g>
						<g clip-path="url(#SVGID_121_)">
							<defs>
								<polygon id="SVGID_185_" points="588.68,397.1 540.011,323.725 588.68,250.349 637.35,323.725 								"/>
							</defs>
							<clipPath id="SVGID_186_">
								<use xlink:href="#SVGID_185_"  overflow="visible"/>
							</clipPath>
							
								<linearGradient id="SVGID_187_" gradientUnits="userSpaceOnUse" x1="-184.9102" y1="1306.2231" x2="-183.9102" y2="1306.2231" gradientTransform="matrix(97.3388 0 0 -97.3388 18538.957 127469.9375)">
								<stop  offset="0" style="stop-color:#FFFFFF"/>
								<stop  offset="1" style="stop-color:#55A4DB"/>
							</linearGradient>
							<rect x="540.011" y="250.349" clip-path="url(#SVGID_186_)" fill="url(#SVGID_187_)" width="97.338" height="146.751"/>
						</g>
						<g clip-path="url(#SVGID_121_)">
							<defs>
								<polygon id="SVGID_188_" points="730.748,397.1 682.079,323.725 730.748,250.349 779.417,323.725 								"/>
							</defs>
							<clipPath id="SVGID_189_">
								<use xlink:href="#SVGID_188_"  overflow="visible"/>
							</clipPath>
							
								<linearGradient id="SVGID_190_" gradientUnits="userSpaceOnUse" x1="-184.9102" y1="1306.2231" x2="-183.9102" y2="1306.2231" gradientTransform="matrix(97.3388 0 0 -97.3388 18681.0195 127469.9375)">
								<stop  offset="0" style="stop-color:#FFFFFF"/>
								<stop  offset="1" style="stop-color:#55A4DB"/>
							</linearGradient>
							<rect x="682.079" y="250.349" clip-path="url(#SVGID_189_)" fill="url(#SVGID_190_)" width="97.339" height="146.751"/>
						</g>
						<g clip-path="url(#SVGID_121_)">
							<defs>
								<polygon id="SVGID_191_" points="872.814,397.1 824.146,323.725 872.814,250.349 921.483,323.725 								"/>
							</defs>
							<clipPath id="SVGID_192_">
								<use xlink:href="#SVGID_191_"  overflow="visible"/>
							</clipPath>
							
								<linearGradient id="SVGID_193_" gradientUnits="userSpaceOnUse" x1="-184.9102" y1="1306.2231" x2="-183.9102" y2="1306.2231" gradientTransform="matrix(97.3385 0 0 -97.3385 18823.0273 127469.5625)">
								<stop  offset="0" style="stop-color:#FFFFFF"/>
								<stop  offset="1" style="stop-color:#55A4DB"/>
							</linearGradient>
							<rect x="824.146" y="250.349" clip-path="url(#SVGID_192_)" fill="url(#SVGID_193_)" width="97.338" height="146.751"/>
						</g>
						<g clip-path="url(#SVGID_121_)">
							<defs>
								<polygon id="SVGID_194_" points="-121.654,582.408 -170.324,509.03 -121.654,435.655 -72.984,509.03 								"/>
							</defs>
							<clipPath id="SVGID_195_">
								<use xlink:href="#SVGID_194_"  overflow="visible"/>
							</clipPath>
							
								<linearGradient id="SVGID_196_" gradientUnits="userSpaceOnUse" x1="-184.9097" y1="1306.2222" x2="-183.9097" y2="1306.2222" gradientTransform="matrix(97.3388 0 0 -97.3388 17828.582 127655.25)">
								<stop  offset="0" style="stop-color:#FFFFFF"/>
								<stop  offset="1" style="stop-color:#55A4DB"/>
							</linearGradient>
							<rect x="-170.324" y="435.655" clip-path="url(#SVGID_195_)" fill="url(#SVGID_196_)" width="97.339" height="146.753"/>
						</g>
						<g clip-path="url(#SVGID_121_)">
							<defs>
								<polygon id="SVGID_197_" points="20.414,582.408 -28.255,509.03 20.414,435.655 69.082,509.03 								"/>
							</defs>
							<clipPath id="SVGID_198_">
								<use xlink:href="#SVGID_197_"  overflow="visible"/>
							</clipPath>
							
								<linearGradient id="SVGID_199_" gradientUnits="userSpaceOnUse" x1="-184.9102" y1="1306.2231" x2="-183.9102" y2="1306.2231" gradientTransform="matrix(97.3373 0 0 -97.3373 17970.4355 127653.3359)">
								<stop  offset="0" style="stop-color:#FFFFFF"/>
								<stop  offset="1" style="stop-color:#55A4DB"/>
							</linearGradient>
							<rect x="-28.255" y="435.655" clip-path="url(#SVGID_198_)" fill="url(#SVGID_199_)" width="97.337" height="146.753"/>
						</g>
						<g clip-path="url(#SVGID_121_)">
							<defs>
								<polygon id="SVGID_200_" points="162.48,582.408 113.812,509.03 162.48,435.655 211.148,509.03 								"/>
							</defs>
							<clipPath id="SVGID_201_">
								<use xlink:href="#SVGID_200_"  overflow="visible"/>
							</clipPath>
							
								<linearGradient id="SVGID_202_" gradientUnits="userSpaceOnUse" x1="-184.9106" y1="1306.2231" x2="-183.9106" y2="1306.2231" gradientTransform="matrix(97.3373 0 0 -97.3373 18112.498 127653.3359)">
								<stop  offset="0" style="stop-color:#FFFFFF"/>
								<stop  offset="1" style="stop-color:#55A4DB"/>
							</linearGradient>
							<rect x="113.812" y="435.655" clip-path="url(#SVGID_201_)" fill="url(#SVGID_202_)" width="97.337" height="146.753"/>
						</g>
						<g clip-path="url(#SVGID_121_)">
							<defs>
								<polygon id="SVGID_203_" points="304.546,582.408 255.878,509.03 304.546,435.655 353.215,509.03 								"/>
							</defs>
							<clipPath id="SVGID_204_">
								<use xlink:href="#SVGID_203_"  overflow="visible"/>
							</clipPath>
							
								<linearGradient id="SVGID_205_" gradientUnits="userSpaceOnUse" x1="-184.9106" y1="1306.2222" x2="-183.9106" y2="1306.2222" gradientTransform="matrix(97.3371 0 0 -97.3371 18254.5059 127652.9453)">
								<stop  offset="0" style="stop-color:#FFFFFF"/>
								<stop  offset="1" style="stop-color:#55A4DB"/>
							</linearGradient>
							<rect x="255.878" y="435.655" clip-path="url(#SVGID_204_)" fill="url(#SVGID_205_)" width="97.337" height="146.754"/>
						</g>
						<g clip-path="url(#SVGID_121_)">
							<defs>
								<polygon id="SVGID_206_" points="446.613,582.408 397.945,509.03 446.613,435.655 495.282,509.03 								"/>
							</defs>
							<clipPath id="SVGID_207_">
								<use xlink:href="#SVGID_206_"  overflow="visible"/>
							</clipPath>
							
								<linearGradient id="SVGID_208_" gradientUnits="userSpaceOnUse" x1="-184.9106" y1="1306.2231" x2="-183.9106" y2="1306.2231" gradientTransform="matrix(97.3374 0 0 -97.3374 18396.627 127653.3594)">
								<stop  offset="0" style="stop-color:#FFFFFF"/>
								<stop  offset="1" style="stop-color:#55A4DB"/>
							</linearGradient>
							<rect x="397.945" y="435.655" clip-path="url(#SVGID_207_)" fill="url(#SVGID_208_)" width="97.337" height="146.754"/>
						</g>
						<g clip-path="url(#SVGID_121_)">
							<defs>
								<polygon id="SVGID_209_" points="588.68,582.408 540.011,509.03 588.68,435.655 637.35,509.03 								"/>
							</defs>
							<clipPath id="SVGID_210_">
								<use xlink:href="#SVGID_209_"  overflow="visible"/>
							</clipPath>
							
								<linearGradient id="SVGID_211_" gradientUnits="userSpaceOnUse" x1="-184.9102" y1="1306.2222" x2="-183.9102" y2="1306.2222" gradientTransform="matrix(97.3388 0 0 -97.3388 18538.957 127655.25)">
								<stop  offset="0" style="stop-color:#FFFFFF"/>
								<stop  offset="1" style="stop-color:#55A4DB"/>
							</linearGradient>
							<rect x="540.011" y="435.655" clip-path="url(#SVGID_210_)" fill="url(#SVGID_211_)" width="97.338" height="146.753"/>
						</g>
						<g clip-path="url(#SVGID_121_)">
							<defs>
								<polygon id="SVGID_212_" points="730.748,582.408 682.079,509.03 730.748,435.655 779.417,509.03 								"/>
							</defs>
							<clipPath id="SVGID_213_">
								<use xlink:href="#SVGID_212_"  overflow="visible"/>
							</clipPath>
							
								<linearGradient id="SVGID_214_" gradientUnits="userSpaceOnUse" x1="-184.9102" y1="1306.2222" x2="-183.9102" y2="1306.2222" gradientTransform="matrix(97.3388 0 0 -97.3388 18681.0195 127655.25)">
								<stop  offset="0" style="stop-color:#FFFFFF"/>
								<stop  offset="1" style="stop-color:#55A4DB"/>
							</linearGradient>
							<rect x="682.079" y="435.655" clip-path="url(#SVGID_213_)" fill="url(#SVGID_214_)" width="97.339" height="146.753"/>
						</g>
						<g clip-path="url(#SVGID_121_)">
							<defs>
								<polygon id="SVGID_215_" points="872.814,582.408 824.146,509.03 872.814,435.655 921.483,509.03 								"/>
							</defs>
							<clipPath id="SVGID_216_">
								<use xlink:href="#SVGID_215_"  overflow="visible"/>
							</clipPath>
							
								<linearGradient id="SVGID_217_" gradientUnits="userSpaceOnUse" x1="-184.9102" y1="1306.2231" x2="-183.9102" y2="1306.2231" gradientTransform="matrix(97.3385 0 0 -97.3385 18823.0273 127654.875)">
								<stop  offset="0" style="stop-color:#FFFFFF"/>
								<stop  offset="1" style="stop-color:#55A4DB"/>
							</linearGradient>
							<rect x="824.146" y="435.655" clip-path="url(#SVGID_216_)" fill="url(#SVGID_217_)" width="97.338" height="146.753"/>
						</g>
						<g clip-path="url(#SVGID_121_)">
							<defs>
								<polygon id="SVGID_218_" points="-121.654,767.709 -170.324,694.334 -121.654,620.958 -72.984,694.334 								"/>
							</defs>
							<clipPath id="SVGID_219_">
								<use xlink:href="#SVGID_218_"  overflow="visible"/>
							</clipPath>
							
								<linearGradient id="SVGID_220_" gradientUnits="userSpaceOnUse" x1="-184.9097" y1="1306.2231" x2="-183.9097" y2="1306.2231" gradientTransform="matrix(97.3388 0 0 -97.3388 17828.582 127840.5625)">
								<stop  offset="0" style="stop-color:#FFFFFF"/>
								<stop  offset="1" style="stop-color:#55A4DB"/>
							</linearGradient>
							<rect x="-170.324" y="620.958" clip-path="url(#SVGID_219_)" fill="url(#SVGID_220_)" width="97.339" height="146.751"/>
						</g>
						<g clip-path="url(#SVGID_121_)">
							<defs>
								<polygon id="SVGID_221_" points="20.414,767.709 -28.255,694.334 20.414,620.958 69.082,694.334 								"/>
							</defs>
							<clipPath id="SVGID_222_">
								<use xlink:href="#SVGID_221_"  overflow="visible"/>
							</clipPath>
							
								<linearGradient id="SVGID_223_" gradientUnits="userSpaceOnUse" x1="-184.9102" y1="1306.2241" x2="-183.9102" y2="1306.2241" gradientTransform="matrix(97.3373 0 0 -97.3373 17970.4355 127838.6484)">
								<stop  offset="0" style="stop-color:#FFFFFF"/>
								<stop  offset="1" style="stop-color:#55A4DB"/>
							</linearGradient>
							<rect x="-28.255" y="620.958" clip-path="url(#SVGID_222_)" fill="url(#SVGID_223_)" width="97.337" height="146.751"/>
						</g>
						<g clip-path="url(#SVGID_121_)">
							<defs>
								<polygon id="SVGID_224_" points="162.48,767.709 113.812,694.334 162.48,620.958 211.148,694.334 								"/>
							</defs>
							<clipPath id="SVGID_225_">
								<use xlink:href="#SVGID_224_"  overflow="visible"/>
							</clipPath>
							
								<linearGradient id="SVGID_226_" gradientUnits="userSpaceOnUse" x1="-184.9106" y1="1306.2241" x2="-183.9106" y2="1306.2241" gradientTransform="matrix(97.3373 0 0 -97.3373 18112.498 127838.6484)">
								<stop  offset="0" style="stop-color:#FFFFFF"/>
								<stop  offset="1" style="stop-color:#55A4DB"/>
							</linearGradient>
							<rect x="113.812" y="620.958" clip-path="url(#SVGID_225_)" fill="url(#SVGID_226_)" width="97.337" height="146.751"/>
						</g>
						<g clip-path="url(#SVGID_121_)">
							<defs>
								<polygon id="SVGID_227_" points="304.546,767.709 255.878,694.334 304.546,620.958 353.215,694.334 								"/>
							</defs>
							<clipPath id="SVGID_228_">
								<use xlink:href="#SVGID_227_"  overflow="visible"/>
							</clipPath>
							
								<linearGradient id="SVGID_229_" gradientUnits="userSpaceOnUse" x1="-184.9106" y1="1306.2222" x2="-183.9106" y2="1306.2222" gradientTransform="matrix(97.3371 0 0 -97.3371 18254.5059 127838.2578)">
								<stop  offset="0" style="stop-color:#FFFFFF"/>
								<stop  offset="1" style="stop-color:#55A4DB"/>
							</linearGradient>
							<rect x="255.878" y="620.958" clip-path="url(#SVGID_228_)" fill="url(#SVGID_229_)" width="97.337" height="146.751"/>
						</g>
						<g clip-path="url(#SVGID_121_)">
							<defs>
								<polygon id="SVGID_230_" points="446.613,767.709 397.945,694.334 446.613,620.958 495.282,694.334 								"/>
							</defs>
							<clipPath id="SVGID_231_">
								<use xlink:href="#SVGID_230_"  overflow="visible"/>
							</clipPath>
							
								<linearGradient id="SVGID_232_" gradientUnits="userSpaceOnUse" x1="-184.9106" y1="1306.2231" x2="-183.9106" y2="1306.2231" gradientTransform="matrix(97.3374 0 0 -97.3374 18396.627 127838.6719)">
								<stop  offset="0" style="stop-color:#FFFFFF"/>
								<stop  offset="1" style="stop-color:#55A4DB"/>
							</linearGradient>
							<rect x="397.945" y="620.958" clip-path="url(#SVGID_231_)" fill="url(#SVGID_232_)" width="97.337" height="146.751"/>
						</g>
						<g clip-path="url(#SVGID_121_)">
							<defs>
								<polygon id="SVGID_233_" points="588.68,767.709 540.011,694.334 588.68,620.958 637.35,694.334 								"/>
							</defs>
							<clipPath id="SVGID_234_">
								<use xlink:href="#SVGID_233_"  overflow="visible"/>
							</clipPath>
							
								<linearGradient id="SVGID_235_" gradientUnits="userSpaceOnUse" x1="-184.9102" y1="1306.2231" x2="-183.9102" y2="1306.2231" gradientTransform="matrix(97.3388 0 0 -97.3388 18538.957 127840.5625)">
								<stop  offset="0" style="stop-color:#FFFFFF"/>
								<stop  offset="1" style="stop-color:#55A4DB"/>
							</linearGradient>
							<rect x="540.011" y="620.958" clip-path="url(#SVGID_234_)" fill="url(#SVGID_235_)" width="97.338" height="146.751"/>
						</g>
						<g clip-path="url(#SVGID_121_)">
							<defs>
								<polygon id="SVGID_236_" points="730.748,767.709 682.079,694.334 730.748,620.958 779.417,694.334 								"/>
							</defs>
							<clipPath id="SVGID_237_">
								<use xlink:href="#SVGID_236_"  overflow="visible"/>
							</clipPath>
							
								<linearGradient id="SVGID_238_" gradientUnits="userSpaceOnUse" x1="-184.9102" y1="1306.2231" x2="-183.9102" y2="1306.2231" gradientTransform="matrix(97.3388 0 0 -97.3388 18681.0195 127840.5625)">
								<stop  offset="0" style="stop-color:#FFFFFF"/>
								<stop  offset="1" style="stop-color:#55A4DB"/>
							</linearGradient>
							<rect x="682.079" y="620.958" clip-path="url(#SVGID_237_)" fill="url(#SVGID_238_)" width="97.339" height="146.751"/>
						</g>
						<g clip-path="url(#SVGID_121_)">
							<defs>
								<polygon id="SVGID_239_" points="872.814,767.709 824.146,694.334 872.814,620.958 921.483,694.334 								"/>
							</defs>
							<clipPath id="SVGID_240_">
								<use xlink:href="#SVGID_239_"  overflow="visible"/>
							</clipPath>
							
								<linearGradient id="SVGID_241_" gradientUnits="userSpaceOnUse" x1="-184.9102" y1="1306.2231" x2="-183.9102" y2="1306.2231" gradientTransform="matrix(97.3385 0 0 -97.3385 18823.0273 127840.1875)">
								<stop  offset="0" style="stop-color:#FFFFFF"/>
								<stop  offset="1" style="stop-color:#55A4DB"/>
							</linearGradient>
							<rect x="824.146" y="620.958" clip-path="url(#SVGID_240_)" fill="url(#SVGID_241_)" width="97.338" height="146.751"/>
						</g>
					</g>
				</g>
			</g>
		</g>
	</g>
</g>
<g opacity="0.3">
	<g>
		<defs>
			<rect id="SVGID_242_" x="378.179" y="45.453" width="353.966" height="770.747"/>
		</defs>
		<clipPath id="SVGID_243_">
			<use xlink:href="#SVGID_242_"  overflow="visible"/>
		</clipPath>
		<path clip-path="url(#SVGID_243_)" fill="#FFFFFF" d="M552.125,647.475c97.627-137.91,157.383-312.213,177.603-518.064
			l2.418-24.616l-23.857-6.519c-6.895-1.886-170.677-46.23-328.899-52.766l-1.21-0.052V816.2l15.202-9.227
			C406.795,798.836,477.49,752.899,552.125,647.475"/>
	</g>
</g>
<path fill="#BDCCD4" d="M329.66,532.295h-63.502h-30.395c-0.327-0.978-0.747-1.638-0.737-2.291
	c0.176-11.514,0.09-23.052,0.115-34.58c0.033-15.123,0.257-30.229,1.512-45.241c1.66-19.853,6.667-38.248,14.66-55.121
	c8.352-17.633,19.964-33.604,34.422-47.84c12.457-12.264,24.982-24.454,37.539-36.608c15.218-14.729,30.484-29.406,45.734-44.1
	c14.795-14.256,29.575-28.528,44.284-42.88c6.644-6.483,13.143-9.759,22.602-9.563c15.64,0.323,31.285,0.393,46.931,0.382
	c16.856-0.012,33.715-0.119,50.571-0.107c2.444,0.002,4.887,0.228,9.485,0.455c-3.263,3.429-5.033,5.431-6.943,7.273
	c-24.775,23.901-49.557,47.794-74.338,71.688c-18.526,17.863-37.052,35.727-55.575,53.594
	c-10.043,9.688-20.086,19.377-30.127,29.067c-2.116,2.042-4.204,4.11-6.254,6.21c-14.437,14.789-26.933,31.173-33.452,51.591
	c-3.605,11.291-5.681,23.479-6.257,35.375C328.941,490.124,329.66,510.739,329.66,532.295"/>
<path fill="#BDCCD4" d="M563.958,532.525H533.5c-26.922,0-53.846,0.117-80.765-0.163c-3.042-0.031-6.924-1.44-8.961-3.664
	c-21.642-23.61-43.031-47.476-64.322-71.433c-1.485-1.67-2.537-4.743-2.272-6.967c2.513-21.04,19.394-41.118,39.418-45.677
	c17.502-3.985,32.69,2.777,44.76,15.535c23.79,25.15,46.844,51.059,70.186,76.67C541.912,508.2,552.238,519.615,563.958,532.525"/>
<path fill="#BDCCD4" d="M235.181,214.804h94.245c0,17.654,0.05,34.998-0.092,52.341c-0.012,1.467-0.993,3.283-2.068,4.328
	c-11.153,10.851-21.483,22.968-33.867,32.014c-19.259,14.068-42.33,6.581-51.806-16.017c-3.612-8.613-5.504-18.449-6.148-27.878
	C234.445,244.935,235.181,230.149,235.181,214.804"/>
<path fill="#1072BA" d="M323.227,531.641h-63.502H229.33c-0.327-0.978-0.747-1.638-0.737-2.292
	c0.176-11.513,0.09-23.051,0.115-34.579c0.033-15.123,0.257-30.229,1.512-45.241c1.66-19.853,6.668-38.248,14.66-55.121
	c8.352-17.633,19.964-33.604,34.423-47.84c12.456-12.264,24.981-24.454,37.538-36.608c15.218-14.729,30.484-29.406,45.734-44.1
	c14.795-14.256,29.576-28.528,44.284-42.88c6.644-6.483,13.143-9.759,22.602-9.563c15.64,0.323,31.285,0.393,46.931,0.382
	c16.856-0.012,33.715-0.119,50.571-0.107c2.444,0.002,4.887,0.228,9.485,0.455c-3.263,3.429-5.033,5.431-6.943,7.273
	c-24.775,23.901-49.556,47.794-74.338,71.688c-18.526,17.863-37.052,35.727-55.575,53.594
	c-10.043,9.688-20.085,19.377-30.126,29.067c-2.116,2.042-4.205,4.11-6.255,6.21c-14.437,14.789-26.933,31.173-33.451,51.591
	c-3.605,11.29-5.682,23.479-6.258,35.375C322.509,489.469,323.227,510.084,323.227,531.641"/>
<path fill="#1072BA" d="M557.526,531.871h-30.458c-26.922,0-53.845,0.116-80.765-0.163c-3.042-0.031-6.924-1.44-8.961-3.664
	c-21.641-23.61-43.031-47.476-64.322-71.433c-1.485-1.67-2.537-4.743-2.272-6.967c2.513-21.04,19.395-41.118,39.419-45.677
	c17.501-3.985,32.689,2.777,44.759,15.535c23.79,25.15,46.844,51.059,70.186,76.67C535.48,507.545,545.807,518.96,557.526,531.871"
	/>
<path fill="#1072BA" d="M230.456,214.149h94.245c0,17.654,0.05,34.998-0.092,52.341c-0.012,1.467-0.993,3.283-2.068,4.328
	c-11.153,10.851-21.483,22.968-33.867,32.014c-19.259,14.068-42.33,6.581-51.806-16.017c-3.612-8.613-5.504-18.449-6.148-27.878
	C229.72,244.281,230.456,229.495,230.456,214.149"/>
<g>
	<path fill="#1072BA" d="M834.272,210.768h33.551v63.338h10.968l36.346-63.338h40.863l-46.024,78.004l46.024,77.579h-40.863
		l-36.346-62.063h-10.753v62.063h-33.765V210.768z"/>
	<path fill="#1072BA" d="M1040.087,210.768h40.863l49.68,155.583h-36.776l-10.323-31.244H1036l-10.323,31.244h-36.991
		L1040.087,210.768z M1075.788,304.925l-14.84-49.523l-16.345,49.523H1075.788z"/>
	<path fill="#1072BA" d="M1157.078,250.514c0-30.819,18.496-40.596,42.584-41.021c26.667-0.638,49.464,1.913,63.444,6.589v27.206
		c-13.765-1.275-41.508-2.126-52.261-2.126c-12.475-0.212-18.497,0.638-18.497,12.541v5.313c0,9.777,3.227,12.752,15.055,12.752
		h22.797c31.83,0,38.712,25.931,38.712,42.934v8.927c0,37.195-22.367,44.421-43.659,44.421c-32.905,0-44.733-0.85-63.229-6.801
		v-27.206c8.603,0.851,35.056,2.338,55.271,2.338c9.032,0,16.345-1.913,16.345-11.265v-6.164c0-7.652-2.365-12.328-12.903-12.328
		h-22.152c-39.357,0-41.508-30.819-41.508-42.934V250.514z"/>
	<path fill="#1072BA" d="M1306.972,210.768h68.821c20.647,0,45.81,5.738,45.81,49.098c0,48.46-27.099,52.286-45.81,51.223
		c-8.602-0.638-32.475-3.826-33.55-4.251v59.513h-35.271V210.768z M1372.568,280.908c8.817,0,13.549-5.526,13.549-20.617
		c0-14.878-6.022-19.342-13.549-19.342h-30.325v39.958H1372.568z"/>
	<path fill="#1072BA" d="M1460.094,244.775c0-29.332,21.722-34.22,36.775-34.007c0,0,50.971,0.85,69.682,3.401v29.119h-60.003
		c-11.183,0-11.183,6.164-11.183,11.902v17.641l61.079,2.126v28.906l-61.079,1.913v17.641c0,11.265,7.097,11.053,13.334,11.053
		h57.853v28.906c-16.56,2.125-67.531,3.613-67.531,3.613c-13.979,0.638-38.926-2.338-38.926-32.945V244.775z"/>
	<path fill="#1072BA" d="M1603.107,210.768h69.466c26.023,0,45.38,11.265,45.38,49.098s-14.625,42.934-24.304,46.334l28.604,60.15
		h-40.002l-23.441-57.174l-20.432-2.976v60.15h-35.271V210.768z M1668.487,279.42c10.754,0,13.764-4.039,13.764-19.554
		c0-13.815-4.301-18.917-13.764-18.917h-29.895v38.471H1668.487z"/>
</g>
<g>
	<path fill="#1072BA" d="M843.746,448.395h30.426l12.677,60.667l12.944-60.667h30.292l9.741,96.54h-21.484l-6.539-59.217
		l-12.41,59.217h-24.688l-12.945-59.217l-5.871,59.217h-21.618L843.746,448.395z"/>
	<path fill="#1072BA" d="M962.382,474.905h21.885v46.29c0,6.331,2.402,8.178,6.272,8.178c6.271,0,10.008-1.583,13.745-5.539v-48.929
		h21.885v70.03h-17.882l-4.003-7.122c-6.539,3.956-10.275,8.309-21.084,8.309c-17.348,0-20.818-11.474-20.818-25.453V474.905z"/>
	<path fill="#1072BA" d="M1050.189,441.669h21.885v74.383c0,9.628,2.402,11.737,5.605,13.188c0,0,6.938,2.77,8.007,2.77v12.925
		h-16.814c-12.01,0-18.683-6.331-18.683-24.926V441.669z"/>
	<path fill="#1072BA" d="M1096.895,479.125l10.81-4.353l3.469-19.519h18.416v19.519h14.146v15.694h-14.146v25.454
		c0,9.891,2.135,11.869,5.605,13.452c0,0,6.938,2.638,7.739,2.638v12.925h-17.882c-10.542,0-17.348-6.463-17.348-25.059v-29.41
		h-10.81V479.125z"/>
	<path fill="#1072BA" d="M1164.152,451.561c0-2.11,1.068-3.43,3.203-3.43h16.547c2.135,0,3.069,1.583,3.069,3.43v13.319
		c0,1.979-1.201,3.034-3.069,3.034h-16.547c-1.868,0-3.203-1.188-3.203-3.034V451.561z M1164.553,474.905h21.885v70.03h-21.885
		V474.905z"/>
	<path fill="#1072BA" d="M1257.165,473.058c0-19.124,11.476-25.19,26.422-25.454c16.548-0.396,30.693,1.188,39.366,4.088v16.882
		c-8.54-0.792-25.754-1.318-32.427-1.318c-7.739-0.133-11.476,0.395-11.476,7.781v3.297c0,6.066,2.001,7.913,9.341,7.913h14.146
		c19.75,0,24.021,16.089,24.021,26.64v5.539c0,23.081-13.878,27.564-27.09,27.564c-20.417,0-27.756-0.528-39.232-4.221v-16.881
		c5.337,0.527,21.751,1.451,34.295,1.451c5.605,0,10.142-1.188,10.142-6.99v-3.825c0-4.748-1.468-7.648-8.007-7.648h-13.745
		c-24.42,0-25.754-19.123-25.754-26.641V473.058z"/>
	<path fill="#1072BA" d="M1349.109,474.905h18.415l3.603,6.725c4.671-3.823,11.478-7.516,19.617-7.516
		c16.814,0,23.086,12.66,23.086,35.477c0,21.101-3.603,36.399-23.086,36.399c-6.005,0-14.012-1.582-19.75-4.221v38.774h-21.885
		V474.905z M1384.205,529.768c4.938,0,7.74-2.638,7.74-19.123c0-15.167-2.669-18.597-7.74-18.597
		c-5.738,0-10.275,1.319-13.078,3.693v31.784C1374.463,529.109,1379.134,529.768,1384.205,529.768z"/>
	<path fill="#1072BA" d="M1466.943,474.376c21.885,0,30.959,2.506,30.959,25.718c0,13.451-7.473,18.199-20.284,18.199h-19.75
		c0,11.21,5.338,10.684,15.48,10.684c10.141,0,13.344,0.132,23.22-1.451v14.375c-9.608,3.957-26.156,3.693-37.365,3.693
		c-17.882,0-23.22-10.946-23.22-36.004C1435.983,479.916,1444.256,474.376,1466.943,474.376z M1471.079,503.655
		c3.203,0,4.938-1.847,4.938-4.748c0-6.989-0.667-8.836-7.74-8.836c-8.007,0-10.676,0.792-10.409,13.584H1471.079z"/>
	<path fill="#1072BA" d="M1542.606,474.245c6.939,0,20.951,0,33.495,4.484v12.925c0,0-10.676-0.791-22.552-0.791
		c-8.807,0-12.277,0.263-12.277,19.254c0,17.146,2.669,18.728,12.277,18.728c12.277,0,23.487-1.055,23.487-1.055v13.057
		c-10.143,6.066-23.22,4.615-34.43,4.748c-13.077,0-23.219-7.518-23.219-35.741S1528.995,474.245,1542.606,474.245z"/>
	<path fill="#1072BA" d="M1598.387,451.561c0-2.11,1.068-3.43,3.203-3.43h16.547c2.136,0,3.068,1.583,3.068,3.43v13.319
		c0,1.979-1.201,3.034-3.068,3.034h-16.547c-1.868,0-3.203-1.188-3.203-3.034V451.561z M1598.788,474.905h21.885v70.03h-21.885
		V474.905z"/>
	<path fill="#1072BA" d="M1642.423,520.536c0-10.022,5.205-19.782,21.885-19.782c0,0,17.614,0.132,17.614,0c0,0,0.135-2.77,0-2.901
		c0-7.254-3.201-7.781-8.939-7.781c-4.938,0-24.955,1.187-28.158,1.451v-13.057c9.342-3.825,18.282-4.88,31.493-4.88
		c16.815,0,27.489,4.88,27.489,23.343v48.007h-17.347l-4.538-7.386c-0.933,1.979-8.272,8.44-18.547,8.177
		c-15.081-0.527-20.952-10.814-20.952-19.123V520.536z M1670.581,529.109c6.807,0,11.342-5.012,11.342-5.012v-10.683l-12.543,1.055
		c-4.67,0.396-5.071,3.956-5.071,6.594v2.242C1664.308,528.977,1667.511,529.109,1670.581,529.109z"/>
	<path fill="#1072BA" d="M1726.895,441.669h21.887v74.383c0,9.628,2.402,11.737,5.604,13.188c0,0,6.939,2.77,8.007,2.77v12.925
		h-16.813c-12.01,0-18.684-6.331-18.684-24.926V441.669z"/>
	<path fill="#1072BA" d="M1781.743,451.561c0-2.11,1.067-3.43,3.203-3.43h16.546c2.136,0,3.069,1.583,3.069,3.43v13.319
		c0,1.979-1.201,3.034-3.069,3.034h-16.546c-1.868,0-3.203-1.188-3.203-3.034V451.561z M1782.143,474.905h21.885v70.03h-21.885
		V474.905z"/>
	<path fill="#1072BA" d="M1824.044,479.125l10.81-4.353l3.47-19.519h18.415v19.519h14.146v15.694h-14.146v25.454
		c0,9.891,2.135,11.869,5.605,13.452c0,0,6.938,2.638,7.739,2.638v12.925h-17.882c-10.541,0-17.348-6.463-17.348-25.059v-29.41
		h-10.81V479.125z"/>
	<path fill="#1072BA" d="M1911.452,474.905l10.408,46.95c1.201,4.879,4.938,5.012,6.539,5.144l12.012-52.094h22.418l-22.152,92.186
		l-9.607,13.453h-15.881l9.074-35.608c-12.409,0-19.883-6.595-22.952-18.992l-12.677-51.038H1911.452z"/>
	<path fill="#1072BA" d="M2063.583,447.34c16.146,0,23.619,1.188,34.562,4.748v16.881c-0.134,0-15.213-1.979-28.558-1.979
		c-12.677,0-17.614,1.451-17.614,29.674c0,21.629,3.069,29.41,17.749,29.41c13.877,0,28.423-1.187,28.423-1.187v16.881
		c-8.541,3.033-18.015,4.221-34.562,3.957c-24.688-0.265-33.495-17.937-33.495-49.324
		C2030.087,465.541,2037.026,447.34,2063.583,447.34z"/>
	<path fill="#1072BA" d="M2119.761,441.669h21.887v74.383c0,9.628,2.401,11.737,5.603,13.188c0,0,6.94,2.77,8.008,2.77v12.925
		h-16.813c-12.01,0-18.684-6.331-18.684-24.926V441.669z"/>
	<path fill="#1072BA" d="M2174.743,451.561c0-2.11,1.067-3.43,3.203-3.43h16.546c2.136,0,3.069,1.583,3.069,3.43v13.319
		c0,1.979-1.201,3.034-3.069,3.034h-16.546c-1.868,0-3.203-1.188-3.203-3.034V451.561z M2175.142,474.905h21.885v70.03h-21.885
		V474.905z"/>
	<path fill="#1072BA" d="M2220.647,474.905h18.016l3.871,7.253c5.337-4.221,10.408-8.44,21.217-8.44
		c17.347,0,20.95,11.342,20.95,25.321v45.896h-21.886v-46.16c0-6.33-2.401-8.44-6.404-8.44c-6.406,0-10.009,1.714-13.877,5.539
		v49.062h-21.887V474.905z"/>
	<path fill="#1072BA" d="M2306.853,451.561c0-2.11,1.067-3.43,3.203-3.43h16.546c2.136,0,3.068,1.583,3.068,3.43v13.319
		c0,1.979-1.2,3.034-3.068,3.034h-16.546c-1.868,0-3.203-1.188-3.203-3.034V451.561z M2307.252,474.905h21.885v70.03h-21.885
		V474.905z"/>
	<path fill="#1072BA" d="M2375.177,474.245c6.938,0,20.949,0,33.494,4.484v12.925c0,0-10.677-0.791-22.552-0.791
		c-8.809,0-12.277,0.263-12.277,19.254c0,17.146,2.67,18.728,12.277,18.728c12.277,0,23.485-1.055,23.485-1.055v13.057
		c-10.142,6.066-23.22,4.615-34.428,4.748c-13.079,0-23.22-7.518-23.22-35.741S2361.565,474.245,2375.177,474.245z"/>
</g>
<g>
	<path fill="#333333" d="M1028.14,628.905v17.498h19.076v5.633h-19.076v18.024h21.329v5.633h-28.163v-52.42h28.163v5.632H1028.14z"
		/>
	<path fill="#333333" d="M1092.049,638.331c3.104,3.029,4.656,7.397,4.656,13.104v24.258h-6.759v-23.281
		c0-4.105-1.026-7.247-3.079-9.425c-2.054-2.179-4.857-3.268-8.411-3.268c-3.605,0-6.472,1.127-8.6,3.38
		c-2.128,2.253-3.191,5.533-3.191,9.838v22.756h-6.834v-41.155h6.834v5.858c1.352-2.104,3.191-3.729,5.52-4.882
		c2.328-1.151,4.894-1.728,7.698-1.728C1084.889,633.787,1088.945,635.301,1092.049,638.331z"/>
	<path fill="#333333" d="M1136.734,635.777c2.503,1.327,4.468,3.317,5.896,5.97c1.427,2.655,2.14,5.884,2.14,9.688v24.258h-6.758
		v-23.281c0-4.105-1.027-7.247-3.081-9.425c-2.053-2.179-4.856-3.268-8.41-3.268c-3.604,0-6.472,1.127-8.6,3.38
		c-2.129,2.253-3.191,5.533-3.191,9.838v22.756h-6.834v-55.575h6.834v20.278c1.352-2.104,3.216-3.729,5.596-4.882
		c2.376-1.151,5.042-1.728,7.998-1.728C1131.427,633.787,1134.231,634.451,1136.734,635.777z"/>
	<path fill="#333333" d="M1155.96,643.887c1.702-3.179,4.042-5.645,7.021-7.396c2.979-1.752,6.296-2.629,9.952-2.629
		c3.604,0,6.732,0.776,9.388,2.328c2.653,1.553,4.63,3.505,5.932,5.857v-7.51h6.91v41.155h-6.91v-7.66
		c-1.351,2.403-3.367,4.393-6.045,5.971c-2.679,1.576-5.796,2.365-9.35,2.365c-3.655,0-6.96-0.901-9.914-2.704
		c-2.955-1.802-5.282-4.329-6.984-7.585c-1.703-3.254-2.553-6.958-2.553-11.114C1153.407,650.759,1154.257,647.068,1155.96,643.887z
		 M1186.375,646.929c-1.251-2.303-2.942-4.067-5.069-5.295c-2.129-1.226-4.468-1.84-7.022-1.84c-2.553,0-4.881,0.602-6.984,1.802
		c-2.103,1.202-3.781,2.955-5.032,5.258c-1.252,2.303-1.877,5.007-1.877,8.111c0,3.154,0.625,5.896,1.877,8.223
		c1.251,2.329,2.929,4.106,5.032,5.333c2.103,1.228,4.431,1.84,6.984,1.84c2.554,0,4.894-0.612,7.022-1.84
		c2.126-1.227,3.817-3.004,5.069-5.333c1.251-2.327,1.877-5.043,1.877-8.148C1188.252,651.936,1187.626,649.232,1186.375,646.929z"
		/>
	<path fill="#333333" d="M1238.947,638.331c3.104,3.029,4.656,7.397,4.656,13.104v24.258h-6.759v-23.281
		c0-4.105-1.027-7.247-3.08-9.425c-2.054-2.179-4.857-3.268-8.411-3.268c-3.604,0-6.472,1.127-8.599,3.38
		c-2.128,2.253-3.191,5.533-3.191,9.838v22.756h-6.835v-41.155h6.835v5.858c1.351-2.104,3.191-3.729,5.52-4.882
		c2.328-1.151,4.893-1.728,7.697-1.728C1231.786,633.787,1235.842,635.301,1238.947,638.331z"/>
	<path fill="#333333" d="M1254.792,643.887c1.702-3.179,4.067-5.645,7.097-7.396c3.029-1.752,6.496-2.629,10.402-2.629
		c5.057,0,9.224,1.227,12.504,3.68c3.278,2.453,5.445,5.857,6.496,10.214h-7.359c-0.702-2.503-2.065-4.48-4.093-5.934
		c-2.028-1.451-4.543-2.178-7.547-2.178c-3.906,0-7.06,1.34-9.463,4.019s-3.605,6.471-3.605,11.377
		c0,4.957,1.202,8.787,3.605,11.491c2.403,2.703,5.557,4.055,9.463,4.055c3.004,0,5.507-0.7,7.51-2.103
		c2.002-1.401,3.38-3.404,4.131-6.008h7.359c-1.102,4.206-3.305,7.573-6.608,10.101c-3.304,2.529-7.435,3.793-12.392,3.793
		c-3.906,0-7.373-0.876-10.402-2.629c-3.03-1.752-5.395-4.229-7.097-7.435c-1.703-3.203-2.553-6.958-2.553-11.266
		C1252.239,650.786,1253.089,647.068,1254.792,643.887z"/>
	<path fill="#333333" d="M1300.604,626.501c-0.901-0.901-1.352-2.001-1.352-3.304c0-1.302,0.451-2.404,1.352-3.306
		c0.901-0.9,2.001-1.351,3.304-1.351c1.251,0,2.316,0.45,3.192,1.351c0.876,0.901,1.314,2.004,1.314,3.306
		c0,1.303-0.438,2.402-1.314,3.304s-1.94,1.353-3.192,1.353C1302.605,627.854,1301.505,627.403,1300.604,626.501z M1307.213,634.538
		v41.155h-6.835v-41.155H1307.213z"/>
	<path fill="#333333" d="M1351.071,638.331c3.104,3.029,4.656,7.397,4.656,13.104v24.258h-6.759v-23.281
		c0-4.105-1.027-7.247-3.08-9.425c-2.053-2.179-4.856-3.268-8.411-3.268c-3.604,0-6.471,1.127-8.599,3.38
		c-2.128,2.253-3.191,5.533-3.191,9.838v22.756h-6.835v-41.155h6.835v5.858c1.351-2.104,3.191-3.729,5.52-4.882
		c2.328-1.151,4.893-1.728,7.697-1.728C1343.91,633.787,1347.966,635.301,1351.071,638.331z"/>
	<path fill="#333333" d="M1393.24,636.19c2.678,1.553,4.668,3.505,5.97,5.857v-7.51h6.91v42.057c0,3.755-0.802,7.097-2.403,10.025
		c-1.603,2.929-3.894,5.22-6.872,6.872c-2.979,1.651-6.446,2.478-10.401,2.478c-5.407,0-9.913-1.275-13.519-3.83
		c-3.604-2.553-5.733-6.033-6.383-10.438h6.759c0.751,2.502,2.302,4.518,4.656,6.045c2.353,1.526,5.183,2.291,8.486,2.291
		c3.755,0,6.822-1.178,9.2-3.531c2.378-2.353,3.567-5.658,3.567-9.912v-8.637c-1.351,2.403-3.354,4.406-6.007,6.008
		c-2.655,1.603-5.759,2.403-9.313,2.403c-3.655,0-6.973-0.901-9.952-2.704c-2.979-1.802-5.32-4.329-7.021-7.585
		c-1.703-3.254-2.553-6.958-2.553-11.114c0-4.206,0.851-7.897,2.553-11.078c1.702-3.179,4.042-5.645,7.021-7.396
		c2.979-1.752,6.296-2.629,9.952-2.629C1387.444,633.862,1390.561,634.638,1393.24,636.19z M1397.333,646.929
		c-1.252-2.303-2.942-4.067-5.069-5.295c-2.128-1.226-4.468-1.84-7.022-1.84c-2.553,0-4.881,0.602-6.984,1.802
		c-2.103,1.202-3.781,2.955-5.032,5.258c-1.252,2.303-1.877,5.007-1.877,8.111c0,3.154,0.625,5.896,1.877,8.223
		c1.251,2.329,2.929,4.106,5.032,5.333c2.103,1.228,4.431,1.84,6.984,1.84c2.554,0,4.894-0.612,7.022-1.84
		c2.127-1.227,3.817-3.004,5.069-5.333c1.251-2.327,1.877-5.043,1.877-8.148C1399.209,651.936,1398.583,649.232,1397.333,646.929z"
		/>
	<path fill="#333333" d="M1444.571,670.135h18.324v5.558h-25.158v-52.345h6.834V670.135z"/>
	<path fill="#333333" d="M1470.404,626.501c-0.901-0.901-1.352-2.001-1.352-3.304c0-1.302,0.451-2.404,1.352-3.306
		c0.901-0.9,2.001-1.351,3.304-1.351c1.251,0,2.315,0.45,3.192,1.351c0.875,0.901,1.314,2.004,1.314,3.306
		c0,1.303-0.438,2.402-1.314,3.304c-0.876,0.901-1.941,1.353-3.192,1.353C1472.406,627.854,1471.305,627.403,1470.404,626.501z
		 M1477.013,634.538v41.155h-6.834v-41.155H1477.013z"/>
	<path fill="#333333" d="M1505.401,640.17h-8.637v35.522h-6.835V640.17h-5.332v-5.633h5.332v-2.929
		c0-4.606,1.189-7.973,3.568-10.102c2.377-2.127,6.195-3.191,11.452-3.191v5.707c-3.003,0-5.119,0.59-6.346,1.765
		c-1.228,1.178-1.84,3.117-1.84,5.821v2.929h8.637V640.17z"/>
	<path fill="#333333" d="M1550.686,657.668h-32.895c0.25,4.056,1.639,7.223,4.168,9.5c2.528,2.279,5.595,3.417,9.2,3.417
		c2.954,0,5.419-0.688,7.397-2.064c1.978-1.377,3.366-3.217,4.168-5.52h7.36c-1.102,3.954-3.305,7.172-6.609,9.649
		c-3.305,2.479-7.41,3.718-12.316,3.718c-3.905,0-7.397-0.876-10.477-2.629c-3.08-1.752-5.495-4.242-7.247-7.473
		c-1.754-3.229-2.628-6.971-2.628-11.228c0-4.254,0.851-7.984,2.553-11.189c1.701-3.203,4.092-5.67,7.172-7.397
		c3.079-1.728,6.621-2.591,10.627-2.591c3.905,0,7.36,0.852,10.364,2.554c3.004,1.702,5.319,4.044,6.946,7.021
		c1.627,2.979,2.441,6.347,2.441,10.102C1550.911,654.84,1550.836,656.217,1550.686,657.668z M1542.124,645.389
		c-1.152-1.877-2.716-3.304-4.694-4.28c-1.979-0.977-4.167-1.465-6.571-1.465c-3.454,0-6.396,1.102-8.824,3.305
		c-2.429,2.204-3.819,5.257-4.168,9.162h25.984C1543.851,649.508,1543.276,647.267,1542.124,645.389z"/>
	<path fill="#333333" d="M1558.796,674.792c-0.901-0.901-1.353-2.002-1.353-3.305c0-1.301,0.451-2.403,1.353-3.304
		c0.901-0.901,2.002-1.353,3.305-1.353c1.251,0,2.315,0.451,3.191,1.353c0.876,0.9,1.314,2.003,1.314,3.304
		c0,1.303-0.438,2.403-1.314,3.305s-1.94,1.353-3.191,1.353C1560.798,676.144,1559.698,675.693,1558.796,674.792z"/>
	<path fill="#333333" d="M1602.58,628.905v17.498h19.075v5.633h-19.075v18.024h21.329v5.633h-28.163v-52.42h28.163v5.632H1602.58z"
		/>
	<path fill="#333333" d="M1655.75,675.693l-9.764-15.321l-9.388,15.321h-7.134l13.293-20.428l-13.293-20.728h7.735l9.764,15.246
		l9.313-15.246h7.134l-13.218,20.352l13.293,20.804H1655.75z"/>
	<path fill="#333333" d="M1670.244,643.887c1.701-3.179,4.066-5.645,7.096-7.396c3.028-1.752,6.496-2.629,10.401-2.629
		c5.057,0,9.225,1.227,12.504,3.68s5.446,5.857,6.496,10.214h-7.359c-0.702-2.503-2.064-4.48-4.092-5.934
		c-2.028-1.451-4.544-2.178-7.549-2.178c-3.905,0-7.059,1.34-9.463,4.019c-2.402,2.679-3.604,6.471-3.604,11.377
		c0,4.957,1.202,8.787,3.604,11.491c2.404,2.703,5.558,4.055,9.463,4.055c3.005,0,5.508-0.7,7.51-2.103
		c2.002-1.401,3.381-3.404,4.131-6.008h7.359c-1.102,4.206-3.304,7.573-6.607,10.101c-3.304,2.529-7.435,3.793-12.393,3.793
		c-3.905,0-7.373-0.876-10.401-2.629c-3.029-1.752-5.395-4.229-7.096-7.435c-1.704-3.203-2.555-6.958-2.555-11.266
		C1667.689,650.786,1668.54,647.068,1670.244,643.887z"/>
	<path fill="#333333" d="M1753.153,657.668h-32.893c0.249,4.056,1.639,7.223,4.167,9.5c2.528,2.279,5.596,3.417,9.2,3.417
		c2.954,0,5.418-0.688,7.396-2.064s3.367-3.217,4.17-5.52h7.359c-1.102,3.954-3.306,7.172-6.609,9.649
		c-3.305,2.479-7.409,3.718-12.316,3.718c-3.904,0-7.397-0.876-10.477-2.629c-3.08-1.752-5.494-4.242-7.248-7.473
		c-1.752-3.229-2.627-6.971-2.627-11.228c0-4.254,0.851-7.984,2.553-11.189c1.701-3.203,4.092-5.67,7.172-7.397
		c3.079-1.728,6.621-2.591,10.627-2.591c3.906,0,7.36,0.852,10.363,2.554c3.006,1.702,5.319,4.044,6.947,7.021
		c1.627,2.979,2.44,6.347,2.44,10.102C1753.378,654.84,1753.303,656.217,1753.153,657.668z M1744.592,645.389
		c-1.153-1.877-2.717-3.304-4.693-4.28c-1.979-0.977-4.168-1.465-6.572-1.465c-3.454,0-6.396,1.102-8.824,3.305
		c-2.43,2.204-3.819,5.257-4.168,9.162h25.985C1746.32,649.508,1745.744,647.267,1744.592,645.389z"/>
	<path fill="#333333" d="M1769.225,620.118v55.575h-6.835v-55.575H1769.225z"/>
	<path fill="#333333" d="M1787.698,620.118v55.575h-6.833v-55.575H1787.698z"/>
	<path fill="#333333" d="M1799.565,626.501c-0.902-0.901-1.354-2.001-1.354-3.304c0-1.302,0.451-2.404,1.354-3.306
		c0.9-0.9,2-1.351,3.304-1.351c1.251,0,2.315,0.45,3.192,1.351c0.875,0.901,1.313,2.004,1.313,3.306
		c0,1.303-0.438,2.402-1.313,3.304c-0.877,0.901-1.941,1.353-3.192,1.353C1801.565,627.854,1800.465,627.403,1799.565,626.501z
		 M1806.172,634.538v41.155h-6.833v-41.155H1806.172z"/>
	<path fill="#333333" d="M1850.031,638.331c3.104,3.029,4.657,7.397,4.657,13.104v24.258h-6.761v-23.281
		c0-4.105-1.026-7.247-3.078-9.425c-2.054-2.179-4.857-3.268-8.412-3.268c-3.604,0-6.471,1.127-8.6,3.38
		c-2.128,2.253-3.19,5.533-3.19,9.838v22.756h-6.835v-41.155h6.835v5.858c1.352-2.104,3.19-3.729,5.52-4.882
		c2.328-1.151,4.894-1.728,7.697-1.728C1842.871,633.787,1846.926,635.301,1850.031,638.331z"/>
	<path fill="#333333" d="M1892.2,636.19c2.679,1.553,4.668,3.505,5.97,5.857v-7.51h6.911v42.057c0,3.755-0.802,7.097-2.404,10.025
		s-3.893,5.22-6.872,6.872c-2.979,1.651-6.446,2.478-10.401,2.478c-5.407,0-9.912-1.275-13.519-3.83
		c-3.604-2.553-5.733-6.033-6.383-10.438h6.759c0.752,2.502,2.303,4.518,4.657,6.045c2.353,1.526,5.181,2.291,8.485,2.291
		c3.755,0,6.822-1.178,9.2-3.531c2.378-2.353,3.566-5.658,3.566-9.912v-8.637c-1.352,2.403-3.354,4.406-6.007,6.008
		c-2.654,1.603-5.759,2.403-9.313,2.403c-3.656,0-6.973-0.901-9.952-2.704c-2.979-1.802-5.319-4.329-7.021-7.585
		c-1.703-3.254-2.554-6.958-2.554-11.114c0-4.206,0.851-7.897,2.554-11.078c1.701-3.179,4.041-5.645,7.021-7.396
		s6.296-2.629,9.952-2.629C1886.404,633.862,1889.521,634.638,1892.2,636.19z M1896.292,646.929c-1.25-2.303-2.94-4.067-5.067-5.295
		c-2.129-1.226-4.468-1.84-7.022-1.84c-2.554,0-4.881,0.602-6.983,1.802c-2.104,1.202-3.781,2.955-5.033,5.258
		c-1.253,2.303-1.878,5.007-1.878,8.111c0,3.154,0.625,5.896,1.878,8.223c1.252,2.329,2.93,4.106,5.033,5.333
		c2.103,1.228,4.43,1.84,6.983,1.84c2.555,0,4.894-0.612,7.022-1.84c2.127-1.227,3.817-3.004,5.067-5.333
		c1.253-2.327,1.878-5.043,1.878-8.148C1898.169,651.936,1897.544,649.232,1896.292,646.929z"/>
	<path fill="#333333" d="M1936.922,626.501c-0.902-0.901-1.353-2.001-1.353-3.304c0-1.302,0.45-2.404,1.353-3.306
		c0.9-0.9,2.001-1.351,3.305-1.351c1.25,0,2.315,0.45,3.191,1.351c0.875,0.901,1.313,2.004,1.313,3.306
		c0,1.303-0.438,2.402-1.313,3.304c-0.876,0.901-1.941,1.353-3.191,1.353C1938.923,627.854,1937.823,627.403,1936.922,626.501z
		 M1943.531,634.538v41.155h-6.833v-41.155H1943.531z"/>
	<path fill="#333333" d="M1987.388,638.331c3.104,3.029,4.657,7.397,4.657,13.104v24.258h-6.76v-23.281
		c0-4.105-1.027-7.247-3.079-9.425c-2.054-2.179-4.856-3.268-8.412-3.268c-3.604,0-6.47,1.127-8.599,3.38s-3.19,5.533-3.19,9.838
		v22.756h-6.835v-41.155h6.835v5.858c1.351-2.104,3.19-3.729,5.519-4.882c2.328-1.151,4.894-1.728,7.697-1.728
		C1980.229,633.787,1984.284,635.301,1987.388,638.331z"/>
	<path fill="#333333" d="M2024.187,635.702c2.303-4.08,5.445-7.272,9.427-9.575c3.98-2.303,8.396-3.455,13.254-3.455
		c5.708,0,10.689,1.378,14.945,4.131c4.256,2.754,7.359,6.659,9.313,11.716h-8.186c-1.453-3.154-3.544-5.582-6.272-7.285
		c-2.728-1.701-5.995-2.554-9.8-2.554c-3.654,0-6.935,0.853-9.839,2.554c-2.904,1.703-5.182,4.119-6.833,7.248
		c-1.652,3.129-2.479,6.796-2.479,11.002c0,4.156,0.827,7.799,2.479,10.927c1.651,3.13,3.929,5.546,6.833,7.248
		s6.185,2.553,9.839,2.553c3.805,0,7.072-0.838,9.8-2.516c2.729-1.678,4.819-4.093,6.272-7.248h8.186
		c-1.953,5.008-5.057,8.875-9.313,11.604c-4.256,2.729-9.237,4.094-14.945,4.094c-4.857,0-9.273-1.139-13.254-3.418
		c-3.981-2.277-7.124-5.444-9.427-9.5s-3.454-8.637-3.454-13.743C2020.733,644.375,2021.884,639.783,2024.187,635.702z"/>
	<path fill="#333333" d="M2081.264,643.887c1.702-3.179,4.041-5.645,7.021-7.396s6.297-2.629,9.952-2.629
		c3.605,0,6.733,0.776,9.389,2.328c2.652,1.553,4.629,3.505,5.931,5.857v-7.51h6.911v41.155h-6.911v-7.66
		c-1.351,2.403-3.366,4.393-6.045,5.971c-2.679,1.576-5.796,2.365-9.349,2.365c-3.656,0-6.961-0.901-9.914-2.704
		c-2.956-1.802-5.282-4.329-6.984-7.585c-1.703-3.254-2.554-6.958-2.554-11.114C2078.71,650.759,2079.561,647.068,2081.264,643.887z
		 M2111.678,646.929c-1.25-2.303-2.94-4.067-5.067-5.295c-2.129-1.226-4.468-1.84-7.022-1.84c-2.554,0-4.881,0.602-6.983,1.802
		c-2.104,1.202-3.781,2.955-5.033,5.258c-1.253,2.303-1.878,5.007-1.878,8.111c0,3.154,0.625,5.896,1.878,8.223
		c1.252,2.329,2.93,4.106,5.033,5.333c2.103,1.228,4.43,1.84,6.983,1.84c2.555,0,4.894-0.612,7.022-1.84
		c2.127-1.227,3.817-3.004,5.067-5.333c1.253-2.327,1.878-5.043,1.878-8.148C2113.556,651.936,2112.931,649.232,2111.678,646.929z"
		/>
	<path fill="#333333" d="M2144.009,635.74c2.228-1.302,4.944-1.953,8.147-1.953v7.06h-1.802c-7.66,0-11.489,4.156-11.489,12.467
		v22.38h-6.835v-41.155h6.835v6.685C2140.067,638.869,2141.782,637.042,2144.009,635.74z"/>
	<path fill="#333333" d="M2197.368,657.668h-32.895c0.251,4.056,1.639,7.223,4.17,9.5c2.525,2.279,5.594,3.417,9.198,3.417
		c2.954,0,5.42-0.688,7.398-2.064c1.977-1.377,3.366-3.217,4.167-5.52h7.36c-1.103,3.954-3.304,7.172-6.608,9.649
		c-3.306,2.479-7.411,3.718-12.317,3.718c-3.905,0-7.396-0.876-10.477-2.629c-3.079-1.752-5.495-4.242-7.246-7.473
		c-1.755-3.229-2.63-6.971-2.63-11.228c0-4.254,0.852-7.984,2.555-11.189c1.701-3.203,4.092-5.67,7.171-7.397
		c3.08-1.728,6.62-2.591,10.627-2.591c3.905,0,7.359,0.852,10.364,2.554c3.004,1.702,5.319,4.044,6.945,7.021
		c1.629,2.979,2.443,6.347,2.443,10.102C2197.594,654.84,2197.518,656.217,2197.368,657.668z M2188.805,645.389
		c-1.15-1.877-2.715-3.304-4.693-4.28s-4.168-1.465-6.571-1.465c-3.454,0-6.396,1.102-8.823,3.305
		c-2.429,2.204-3.818,5.257-4.169,9.162h25.984C2190.533,649.508,2189.958,647.267,2188.805,645.389z"/>
	<path fill="#333333" d="M2205.478,674.792c-0.9-0.901-1.352-2.002-1.352-3.305c0-1.301,0.451-2.403,1.352-3.304
		c0.901-0.901,2.002-1.353,3.306-1.353c1.25,0,2.314,0.451,3.19,1.353c0.876,0.9,1.314,2.003,1.314,3.304
		c0,1.303-0.438,2.403-1.314,3.305s-1.94,1.353-3.19,1.353C2207.48,676.144,2206.379,675.693,2205.478,674.792z"/>
</g>
<rect x="834.272" y="641.179" fill="#333333" width="91.906" height="20.976"/>
<rect x="2304.23" y="641.179" fill="#333333" width="100.279" height="20.976"/>
<rect x="12.003" y="30.003" fill="none" width="747.075" height="804.081"/>
</svg>
